<?xml version="1.0" encoding="utf-8"?>
<!-- Generator: Adobe Illustrator 24.1.2, SVG Export Plug-In . SVG Version: 6.00 Build 0)  -->
<svg version="1.1" id="Layer_1" xmlns="http://www.w3.org/2000/svg" xmlns:xlink="http://www.w3.org/1999/xlink" x="0px" y="0px"
	 viewBox="0 0 792 792" style="enable-background:new 0 0 792 792;" xml:space="preserve">
<style type="text/css">
	.st0{fill:#FDBA4C;}
	.st1{fill:#F7F6FB;}
	.st2{fill:#F8F8F9;}
	.st3{fill:none;}
	.st4{fill:#127D42;}
	.st5{fill:#14A64C;}
</style>
<path class="st0" d="M-1235.81,222.14c-1.51-6.96-3.8-10.67-12.18-10.99c-4.52-0.18-9.06-0.03-13.59-0.03c-0.12,0-0.25,0-0.37,0
	c-0.12,0-0.25,0-0.37,0c-4.53,0-9.07-0.15-13.59,0.03c-8.38,0.33-10.67,4.03-12.18,10.99c-0.35,1.6,1.31,1.32,1.96,1.97
	c1.37,1.36,3.03,1.84,4.82,0.42c1.17-0.92,2.42-1.11,3.71-0.06c1.76,1.42,3.54,1.48,5.33-0.03c1.07-0.9,2.16-0.89,3.28,0
	c1.74,1.38,3.5,1.64,5.33,0.11c0.56-0.47,1.14-0.64,1.71-0.61c0.57-0.03,1.15,0.14,1.71,0.61c1.83,1.52,3.6,1.27,5.33-0.11
	c1.11-0.89,2.21-0.9,3.28,0c1.79,1.51,3.57,1.45,5.33,0.03c1.29-1.04,2.55-0.86,3.71,0.06c1.78,1.41,3.45,0.93,4.82-0.42
	C-1237.13,223.46-1235.47,223.74-1235.81,222.14z"/>
<path class="st1" d="M-848.44,469.38c-2.95-2.86-4.43-6.49-4.43-10.87c0-4.47,1.45-8.1,4.36-10.87c2.91-2.77,6.55-4.16,10.94-4.16
	c4.47,0,8.14,1.39,11.01,4.16c2.86,2.78,4.3,6.4,4.3,10.87c0,4.39-1.46,8.01-4.36,10.87c-2.91,2.87-6.56,4.3-10.94,4.3
	C-841.86,473.68-845.49,472.25-848.44,469.38z"/>
<path class="st0" d="M-1216.72,371.38c-0.13-9.33-9.85-24.25-13.59-29.21l-1.05-1.39l-0.23-1.73l-14.03-107.6l2.87-1.3
	c0-0.05,0.01-0.11,0.01-0.16c0.01-0.22-0.01-1.07-0.62-2.71l-1.61-4.31l2.3-1.98c-0.84-2.01-2.01-2.21-5.02-2.33
	c-2.96-0.12-5.91-0.09-9.04-0.06c-1.43,0.01-2.86,0.03-4.29,0.03h-0.75c-1.43,0-2.86-0.01-4.29-0.03c-3.13-0.03-6.08-0.06-9.04,0.06
	c-3,0.12-4.18,0.32-5.02,2.33l2.3,1.98l-1.61,4.31c-0.61,1.64-0.63,2.49-0.62,2.71c0,0.06,0.01,0.11,0.01,0.16l2.87,1.3
	l-14.25,109.33l-1.05,1.4c-3.73,4.96-13.46,19.88-13.59,29.2c-0.19,13.2-1.11,168.52-1.15,174.64c0.12,1.62,1.87,14.54,25.33,15.9
	h40.98c23.84-1.38,25.26-14.88,25.33-15.89C-1215.61,540.09-1216.54,384.59-1216.72,371.38L-1216.72,371.38z"/>
<path class="st2" d="M-1225.03,338.19l-13.39-102.74c0,0,2.1-0.96,2.3-5.17c0.08-1.79-0.42-3.71-1.03-5.33
	c0.68-0.59,2.25-0.36,1.91-1.93c-1.51-6.96-3.8-10.67-12.18-10.99c-4.52-0.18-9.06-0.03-13.59-0.03c-0.12,0-0.25,0-0.37,0
	c-0.12,0-0.25,0-0.37,0c-4.53,0-9.07-0.15-13.59,0.03c-8.38,0.33-10.67,4.03-12.18,10.99c-0.34,1.56,1.23,1.34,1.91,1.93
	c-0.61,1.62-1.11,3.54-1.03,5.33c0.19,4.21,2.3,5.17,2.3,5.17l-13.39,102.74c0,0-14.73,19.52-14.92,33.1
	c-0.19,13.58-1.15,174.87-1.15,174.87s0.57,20.66,31.76,22.38h18.56h2.12h2.12h18.56c31.19-1.72,31.76-22.38,31.76-22.38
	s-0.96-161.29-1.15-174.87C-1210.3,357.7-1225.03,338.19-1225.03,338.19z M-1240.9,561.92h-40.98c-23.46-1.36-25.2-14.28-25.33-15.9
	c0.04-6.13,0.96-161.44,1.15-174.64c0.13-9.33,9.85-24.25,13.59-29.2l1.05-1.4l14.25-109.33l-2.87-1.3c0-0.05-0.01-0.11-0.01-0.16
	c-0.01-0.22,0.01-1.07,0.62-2.71l1.61-4.31l-2.3-1.98c0.84-2.01,2.01-2.21,5.02-2.33c2.96-0.12,5.91-0.09,9.04-0.06
	c1.43,0.01,2.86,0.03,4.29,0.03h0.75c1.43,0,2.86-0.01,4.29-0.03c3.13-0.03,6.09-0.06,9.04,0.06c3,0.12,4.18,0.32,5.02,2.33
	l-2.3,1.98l1.61,4.31c0.61,1.64,0.63,2.49,0.62,2.71c0,0.06-0.01,0.11-0.01,0.16l-2.87,1.3l14.03,107.6l0.23,1.73l1.05,1.39
	c3.74,4.96,13.46,19.88,13.59,29.21v0c0.19,13.21,1.11,168.71,1.15,174.65C-1215.65,547.05-1217.07,560.54-1240.9,561.92z"/>
<path class="st3" d="M-1267.2,235.35l-6.86,71.5L-1267.2,235.35c-9.13-7.07,0-13.92,0-13.92l-0.1-0.34l0.1,0.34
	C-1267.2,221.43-1276.33,228.28-1267.2,235.35z"/>
<path class="st3" d="M-1283.19,556.43c1.14,0.9,2.56,1.65,4.36,2.12C-1280.62,558.08-1282.05,557.33-1283.19,556.43z"/>
<path class="st0" d="M-1297.77,338.19l2.03-15.58l-76.14,43.96v127.57l58.15,33.57c0.26-42.73,0.89-145.69,1.04-156.42
	C-1312.5,357.7-1297.77,338.19-1297.77,338.19z"/>
<path class="st0" d="M-1276.81,333.42c-0.11,0.23-0.26,0.52-0.43,0.88C-1277.07,333.95-1276.92,333.65-1276.81,333.42z"/>
<path class="st0" d="M-1278.16,336.26c-0.47,1.02-1,2.21-1.54,3.5C-1279.16,338.48-1278.63,337.28-1278.16,336.26z"/>
<path class="st0" d="M-1279.7,339.77c-0.27,0.65-0.55,1.32-0.82,2C-1280.25,341.08-1279.98,340.41-1279.7,339.77z"/>
<path class="st0" d="M-1277.24,334.3c-0.26,0.53-0.57,1.2-0.92,1.96C-1277.81,335.5-1277.49,334.83-1277.24,334.3z"/>
<path class="st0" d="M-1150.92,366.57l-76.14-43.96l2.03,15.58c0,0,14.73,19.52,14.92,33.1c0.15,10.73,0.78,113.69,1.04,156.42
	l58.15-33.57V366.57z"/>
<path class="st4" d="M-1208.96,546.16c0,0-0.04-7.1-0.11-18.45c-0.26-42.73-0.89-145.69-1.04-156.42
	c-0.19-13.58-14.92-33.1-14.92-33.1l-2.03-15.58l-11.36-87.16c0,0,2.1-0.96,2.3-5.17c0.19-4.21-2.87-9.18-2.87-9.18h-22.4h-5.9
	l0.1,0.34c0,0-9.13,6.85,0,13.92l-6.86,71.5l-0.33,3.43v0l-2.17,22.61c0,0-0.09,0.19-0.26,0.53c-0.11,0.23-0.26,0.52-0.43,0.88
	c-0.26,0.53-0.57,1.2-0.92,1.96c-0.47,1.02-1,2.21-1.54,3.5c-0.27,0.65-0.55,1.32-0.82,2s-0.54,1.38-0.8,2.09
	c-0.36,0.98-0.71,1.97-1.01,2.94c-0.38,1.21-0.71,2.4-0.95,3.5l-4.27,192.52l-0.08,3.75c0,0-0.03,1.03,0.25,2.5
	c0.08,0.44,0.19,0.92,0.34,1.43c0.1,0.34,0.21,0.68,0.35,1.03s0.29,0.71,0.46,1.07c0.18,0.36,0.37,0.72,0.6,1.08
	c0.11,0.18,0.23,0.36,0.35,0.53c0.56,0.79,1.25,1.55,2.1,2.23c1.14,0.9,2.56,1.65,4.36,2.12c0.45,0.12,0.92,0.22,1.41,0.3
	c0.37,0.06,0.79,0.12,1.23,0.18c0.69,0.09,1.47,0.18,2.32,0.27c2.48,0.25,5.58,0.45,9.12,0.55c1.36,0.04,2.78,0.06,4.25,0.06
	c0.01,0,0.01,0,0.02,0c2.52,0,5.19-0.05,7.95-0.17c1.84-0.08,3.71-0.2,5.61-0.36c2.84-0.23,5.74-0.55,8.61-0.97
	c5.54-0.81,11.02-2,16.02-3.69c1.25-0.42,2.47-0.88,3.65-1.37c1.18-0.49,2.32-1.01,3.42-1.57c0.55-0.28,1.09-0.57,1.61-0.86
	c1.05-0.59,2.06-1.22,3.01-1.89c0.48-0.33,0.94-0.68,1.38-1.03v0C-1208.99,546.86-1208.96,546.16-1208.96,546.16z"/>
<polygon class="st5" points="-1274.38,310.28 -1274.38,310.28 -1274.05,306.85 "/>
<polygon class="st5" points="-1274.38,310.28 -1274.38,310.28 -1274.38,310.28 "/>
<polygon class="st5" points="-1274.38,310.28 -1274.38,310.28 -1274.38,310.28 "/>
<path class="st5" d="M-1210.6,549.04c-0.95,0.67-1.96,1.3-3.01,1.89c-0.53,0.3-1.06,0.58-1.61,0.86c-1.1,0.56-2.24,1.08-3.42,1.57
	c-1.18,0.49-2.4,0.94-3.65,1.37c-4.99,1.69-10.48,2.88-16.02,3.69c-2.88,0.42-5.77,0.74-8.61,0.97c-1.9,0.15-3.77,0.27-5.61,0.36
	c-2.76,0.13-5.43,0.18-7.95,0.17c-0.01,0-0.01,0-0.02,0c-1.47,0-2.89-0.02-4.25-0.06c-3.54-0.1-6.64-0.3-9.12-0.55
	c-0.85-0.09-1.63-0.18-2.32-0.27c-0.44-0.06-0.86-0.12-1.23-0.18c-0.49-0.08-0.96-0.18-1.41-0.3c-1.79-0.47-3.22-1.22-4.36-2.12
	c-0.85-0.68-1.54-1.44-2.1-2.23c-0.12-0.18-0.24-0.35-0.35-0.53c-0.22-0.36-0.42-0.72-0.6-1.08c-0.18-0.36-0.33-0.72-0.46-1.07
	s-0.25-0.7-0.35-1.03c-0.15-0.5-0.26-0.98-0.34-1.43c-0.28-1.47-0.25-2.5-0.25-2.5l0.08-3.75l4.27-192.52
	c0.24-1.1,0.57-2.29,0.95-3.5c0.31-0.97,0.65-1.96,1.01-2.94c0.26-0.7,0.53-1.4,0.8-2.09s0.55-1.35,0.82-2
	c0.55-1.29,1.08-2.49,1.54-3.5c0.35-0.76,0.66-1.43,0.92-1.96c0.17-0.36,0.31-0.65,0.43-0.88c0.17-0.34,0.26-0.53,0.26-0.53
	l2.17-22.61v0l0.33-3.43l6.86-71.5c-9.13-7.07,0-13.92,0-13.92l-0.1-0.34h-16.5c0,0-3.06,4.97-2.87,9.18
	c0.19,4.21,2.3,5.17,2.3,5.17l-11.36,87.16l-2.03,15.58c0,0-14.73,19.52-14.92,33.1c-0.15,10.73-0.78,113.69-1.04,156.42
	c-0.07,11.35-0.11,18.45-0.11,18.45s0.57,20.66,31.76,22.38h18.56h4.24h18.56c21.35-1.18,28.35-11.24,30.64-17.46
	c0.44-1.19,0.7-2.22,0.86-3.04c0-0.01,0-0.02,0.01-0.03C-1209.66,548.36-1210.12,548.7-1210.6,549.04z"/>
<polygon class="st5" points="-1276.55,332.89 -1274.38,310.28 -1274.38,310.28 "/>
<path class="st5" d="M-1260.48,559.91c2.52,0,5.19-0.05,7.95-0.17C-1255.28,559.86-1257.95,559.91-1260.48,559.91z"/>
<path class="st5" d="M-1252.53,559.74c1.84-0.08,3.71-0.2,5.61-0.36C-1248.81,559.54-1250.69,559.65-1252.53,559.74z"/>
<path class="st5" d="M-1210.6,549.04c0.48-0.33,0.94-0.68,1.38-1.03v0C-1209.66,548.36-1210.12,548.7-1210.6,549.04z"/>
<path class="st5" d="M-1213.61,550.93c1.05-0.59,2.06-1.22,3.01-1.89C-1211.55,549.71-1212.55,550.34-1213.61,550.93z"/>
<path class="st5" d="M-1218.64,553.36c1.18-0.49,2.32-1.01,3.42-1.57C-1216.32,552.35-1217.46,552.87-1218.64,553.36z"/>
<path class="st5" d="M-1222.29,554.72c1.25-0.42,2.47-0.88,3.65-1.37C-1219.82,553.85-1221.04,554.3-1222.29,554.72z"/>
<path class="st5" d="M-1276.19,559.03c0.69,0.09,1.47,0.18,2.32,0.27C-1274.72,559.22-1275.5,559.13-1276.19,559.03z"/>
<path class="st3" d="M-1203.49,371.19L-1203.49,371.19c0.15,10.38,0.74,107.96,1.01,152.7l51.55-29.76V366.57l-68.92-39.79
	l1.16,8.87C-1214.92,340.89-1203.68,357.68-1203.49,371.19z"/>
<path class="st3" d="M-1221.01,478.04v17.85c0,18.26-14.85,33.2-33.01,33.2h-13.99c-18.15,0-33.01-14.94-33.01-33.2v-17.85h-12.4
	c-0.12,19.19-0.23,37.06-0.3,49.67l52.32,30.21l52.33-30.21c-0.08-12.62-0.18-30.47-0.3-49.67H-1221.01z"/>
<path class="st3" d="M-1240.72,568.54c31.19-1.72,31.76-22.38,31.76-22.38s0-0.37-0.01-1.05l-40.58,23.43H-1240.72z"/>
<path class="st3" d="M-1313.83,546.16c0,0,0.57,20.66,31.76,22.38h8.82l-40.57-23.43C-1313.83,545.79-1313.83,546.16-1313.83,546.16
	z"/>
<path class="st3" d="M-1312.68,371.29c-0.08,5.77-0.3,38.22-0.53,73.63h12.2v-16.9c0-18.26,14.85-33.2,33.01-33.2h13.99
	c18.15,0,33.01,14.94,33.01,33.2v16.9h11.43c-0.23-35.41-0.45-67.86-0.53-73.63c-0.19-13.58-14.92-33.1-14.92-33.1l-2.03-15.57
	l-34.34-19.83l-34.33,19.82l-2.03,15.58C-1297.76,338.19-1312.49,357.7-1312.68,371.29z"/>
<path class="st3" d="M-1304.1,335.64l1.16-8.87l-68.93,39.8v127.57l51.56,29.77c0.27-44.75,0.87-142.32,1.02-152.71
	C-1319.11,357.68-1307.87,340.89-1304.1,335.64z"/>
<path class="st3" d="M-1257.62,287.5l28.1,16.22l-8.9-68.28c0,0,2.1-0.96,2.3-5.17c0.08-1.79-0.42-3.71-1.03-5.33
	c0.68-0.59,2.25-0.36,1.91-1.93c-1.51-6.96-3.8-10.67-12.18-10.99c-4.52-0.18-9.06-0.03-13.59-0.03c-0.12,0-0.25,0-0.37,0
	c-0.12,0-0.25,0-0.37,0c-4.53,0-9.07-0.15-13.59,0.03c-8.38,0.33-10.67,4.03-12.18,10.99c-0.34,1.56,1.23,1.34,1.91,1.93
	c-0.61,1.62-1.11,3.54-1.03,5.33c0.19,4.21,2.3,5.17,2.3,5.17l-8.9,68.27l28.09-16.22C-1262.84,286.15-1259.96,286.15-1257.62,287.5
	z"/>
<path class="st1" d="M-1139.58,355.65l-82.72-47.76l-9.17-70.35c1.06-1.77,1.83-4.08,1.96-6.96c0.05-1.01-0.01-2.07-0.18-3.17
	c1.14-1.85,1.29-4,0.91-5.79c-1.67-7.72-5.16-15.69-18.39-16.21c-3.28-0.13-6.54-0.1-9.69-0.06c-1.39,0.01-2.77,0.03-4.16,0.03
	h-0.75c-1.38,0-2.77-0.01-4.16-0.03c-3.15-0.03-6.41-0.06-9.69,0.06c-13.22,0.52-16.72,8.48-18.39,16.21
	c-0.38,1.77-0.23,3.91,0.91,5.76c-0.16,1.11-0.22,2.17-0.18,3.19c0.13,2.89,0.89,5.2,1.96,6.97l-9.17,70.34l-82.73,47.77
	c-2.34,1.35-3.78,3.85-3.78,6.55v136.3c0,2.7,1.44,5.2,3.78,6.55l62.8,36.26c-0.02,2.95-0.03,4.65-0.03,4.81l0,0.22
	c0.26,9.25,8.53,27.18,38.01,28.81l41.9,0.01l0.18-0.01c29.48-1.63,37.75-19.56,38.01-28.81l0-0.22c0-0.16-0.01-1.87-0.03-4.81
	l62.79-36.25c2.34-1.35,3.78-3.85,3.78-6.55V362.2C-1135.8,359.5-1137.24,357-1139.58,355.65z M-1284.37,235.45
	c0,0-2.1-0.96-2.3-5.17c-0.08-1.79,0.42-3.71,1.03-5.33c-0.68-0.59-2.25-0.36-1.91-1.93c1.51-6.96,3.8-10.67,12.18-10.99
	c4.52-0.18,9.06-0.03,13.59-0.03c0.12,0,0.25,0,0.37,0c0.12,0,0.25,0,0.37,0c4.53,0,9.07-0.15,13.59,0.03
	c8.38,0.33,10.67,4.03,12.18,10.99c0.34,1.56-1.23,1.34-1.91,1.93c0.61,1.62,1.11,3.54,1.03,5.33c-0.19,4.21-2.3,5.17-2.3,5.17
	l8.9,68.28l2.46,18.89l2.03,15.57c0,0,14.73,19.52,14.92,33.1c0.08,5.77,0.3,38.22,0.53,73.63h-11.43v-16.9
	c0-18.26-14.85-33.2-33.01-33.2h-13.99c-18.15,0-33.01,14.94-33.01,33.2v16.9h-12.2c0.23-35.41,0.44-67.86,0.53-73.63
	c0.19-13.58,14.92-33.1,14.92-33.1l2.03-15.58l2.46-18.89L-1284.37,235.45z M-1371.87,494.13V366.57l68.93-39.8l-1.16,8.87
	c-3.77,5.25-15.01,22.04-15.2,35.55c-0.15,10.38-0.75,107.96-1.02,152.71L-1371.87,494.13z M-1208.96,546.16
	c0,0-0.57,20.66-31.76,22.38h-8.83h-9.73h-2.12h-2.12h-9.74h-8.82c-31.19-1.72-31.76-22.38-31.76-22.38s0-0.37,0.01-1.04
	c0.01-2.34,0.05-8.59,0.1-17.41c0.08-12.62,0.18-30.48,0.3-49.67h12.4v17.85c0,18.26,14.85,33.2,33.01,33.2h13.99
	c18.15,0,33.01-14.94,33.01-33.2v-17.85h11.64c0.12,19.19,0.23,37.05,0.3,49.67c0.05,8.82,0.09,15.06,0.1,17.41
	C-1208.96,545.78-1208.96,546.16-1208.96,546.16z M-1150.92,494.13l-51.55,29.76c-0.27-44.75-0.87-142.32-1.01-152.7v0
	c-0.19-13.51-11.44-30.3-15.2-35.55l-1.16-8.87l68.92,39.79V494.13z"/>
<path class="st1" d="M-1083.53,399.82h17.32v19.06h-16.65v51.01h-25.51v-51.01h-10.6v-19.06h10.6v-1.88
	c0-8.86,2.66-15.89,7.99-21.08c5.32-5.19,12.78-7.79,22.35-7.79c3.22,0,6.35,0.31,9.4,0.94c3.04,0.63,5.55,1.57,7.52,2.82
	l-6.31,17.99c-2.51-1.43-5.06-2.15-7.65-2.15c-2.68,0-4.77,0.81-6.24,2.42c-1.48,1.61-2.21,3.98-2.21,7.11V399.82z"/>
<path class="st1" d="M-1014.83,398.41c4.16-1.66,8.93-2.48,14.3-2.48v22.96c-2.33-0.27-4.25-0.4-5.77-0.4
	c-5.46,0-9.73,1.48-12.82,4.43c-3.09,2.95-4.63,7.47-4.63,13.56v33.43h-25.51v-72.76h24.3v8.73
	C-1022.37,402.55-1018.99,400.07-1014.83,398.41z"/>
<path class="st1" d="M-982.47,385.24c-2.87-2.59-4.3-5.82-4.3-9.67c0-3.85,1.43-7.07,4.3-9.67c2.86-2.59,6.62-3.89,11.28-3.89
	c4.65,0,8.41,1.23,11.28,3.69c2.86,2.46,4.29,5.62,4.29,9.46c0,4.03-1.43,7.36-4.29,10c-2.87,2.64-6.63,3.96-11.28,3.96
	C-975.85,389.13-979.61,387.83-982.47,385.24z M-983.95,397.18h25.51v72.76h-25.51V397.18z"/>
<path class="st1" d="M-879.01,404.18c6.35,5.5,9.53,13.94,9.53,25.31v40.41h-23.76v-9.4c-3.67,7.07-10.83,10.61-21.48,10.61
	c-5.64,0-10.52-0.99-14.63-2.95c-4.12-1.97-7.23-4.63-9.33-7.99c-2.1-3.36-3.16-7.18-3.16-11.48c0-6.89,2.64-12.24,7.92-16.04
	c5.28-3.8,13.42-5.71,24.43-5.71h14.5c-0.45-7.7-5.59-11.54-15.44-11.54c-3.49,0-7.03,0.56-10.61,1.68
	c-3.58,1.12-6.62,2.66-9.13,4.63l-8.59-17.32c4.03-2.69,8.93-4.77,14.7-6.24c5.77-1.48,11.57-2.21,17.39-2.21
	C-894.58,395.93-885.36,398.68-879.01,404.18z M-899.81,452.85c2.24-1.43,3.85-3.54,4.83-6.31v-6.31h-11.01
	c-7.43,0-11.14,2.46-11.14,7.38c0,2.24,0.85,4.03,2.55,5.37c1.7,1.34,4.03,2.01,6.98,2.01
	C-904.65,454.99-902.05,454.28-899.81,452.85z"/>
<path class="st1" d="M-827.49,493.86l6.44-18.12c2.33,1.43,4.97,2.15,7.92,2.15c2.33,0,4.16-0.81,5.5-2.42
	c1.34-1.61,2.01-3.98,2.01-7.11v-70.75h25.51v70.88c0,8.95-2.62,16.04-7.85,21.28c-5.23,5.24-12.51,7.85-21.81,7.85
	C-817.2,497.62-823.11,496.37-827.49,493.86z M-804.13,385.66c-2.86-2.59-4.29-5.82-4.29-9.67c0-3.85,1.43-7.07,4.29-9.67
	c2.86-2.59,6.62-3.89,11.28-3.89s8.41,1.23,11.28,3.69c2.86,2.46,4.29,5.62,4.29,9.46c0,4.03-1.43,7.36-4.29,10
	c-2.87,2.64-6.63,3.96-11.28,3.96S-801.27,388.26-804.13,385.66z"/>
<path class="st1" d="M-749.21,469.02c-5.91-1.39-10.65-3.2-14.23-5.44l7.65-17.45c3.31,2.06,7.25,3.69,11.81,4.9
	c4.56,1.21,9.08,1.81,13.56,1.81c4.12,0,7.05-0.42,8.79-1.28c1.74-0.85,2.62-2.08,2.62-3.69c0-1.61-1.05-2.75-3.16-3.42
	c-2.1-0.67-5.44-1.32-10-1.95c-5.82-0.72-10.76-1.65-14.83-2.82c-4.07-1.16-7.59-3.31-10.54-6.44c-2.95-3.13-4.43-7.52-4.43-13.16
	c0-4.65,1.39-8.79,4.16-12.42c2.77-3.62,6.82-6.49,12.15-8.59c5.32-2.1,11.7-3.15,19.13-3.15c5.28,0,10.52,0.54,15.71,1.61
	c5.19,1.07,9.53,2.6,13.02,4.56l-7.65,17.32c-6.44-3.58-13.43-5.37-20.94-5.37c-4.03,0-6.98,0.47-8.86,1.41
	c-1.88,0.94-2.82,2.17-2.82,3.69c0,1.7,1.03,2.89,3.09,3.56c2.06,0.67,5.46,1.37,10.2,2.08c6,0.9,10.96,1.93,14.9,3.09
	c3.94,1.16,7.36,3.29,10.27,6.38c2.91,3.09,4.36,7.41,4.36,12.95c0,4.56-1.39,8.66-4.16,12.28c-2.77,3.62-6.87,6.47-12.28,8.52
	c-5.42,2.06-11.93,3.09-19.53,3.09C-737.3,471.1-743.3,470.41-749.21,469.02z"/>
<path class="st0" d="M-1235.25,222.14c-1.51-6.96-3.8-10.67-12.18-10.99c-4.52-0.18-9.06-0.03-13.59-0.03c-0.12,0-0.25,0-0.37,0
	s-0.25,0-0.37,0c-4.53,0-9.07-0.15-13.59,0.03c-8.38,0.33-10.67,4.03-12.18,10.99c-0.35,1.6,1.31,1.32,1.96,1.97
	c1.37,1.36,3.03,1.84,4.82,0.42c1.17-0.92,2.42-1.11,3.71-0.06c1.76,1.42,3.54,1.48,5.33-0.03c1.07-0.9,2.17-0.89,3.28,0
	c1.74,1.38,3.5,1.64,5.33,0.11c0.56-0.47,1.14-0.64,1.71-0.61c0.57-0.03,1.15,0.14,1.71,0.61c1.83,1.52,3.6,1.27,5.33-0.11
	c1.11-0.89,2.21-0.9,3.28,0c1.79,1.51,3.57,1.45,5.33,0.03c1.29-1.04,2.55-0.86,3.71,0.06c1.78,1.41,3.45,0.93,4.82-0.42
	C-1236.56,223.46-1234.9,223.74-1235.25,222.14z"/>
<g>
	<path class="st3" d="M-1681.69,136.34c-0.06,0.15-0.12,0.3-0.18,0.45C-1681.8,136.64-1681.74,136.5-1681.69,136.34
		C-1681.68,136.34-1681.69,136.34-1681.69,136.34z"/>
	<path class="st3" d="M-1681.86,136.8c-0.56,1.49-1.05,3.15-1.32,4.82C-1682.91,139.95-1682.41,138.29-1681.86,136.8
		C-1681.86,136.8-1681.86,136.8-1681.86,136.8z"/>
	<path class="st3" d="M-1611.92,152.35l19.84,152.22c0,0,21.83,28.91,22.11,49.04c0.12,8.55,0.45,56.63,0.78,109.1h0.01
		c-0.33-52.46-0.66-100.54-0.78-109.1c-0.28-20.13-22.11-49.04-22.11-49.04l-3.01-23.08v0l-3.65-27.98L-1611.92,152.35
		c0.01,0,3.13-1.42,3.41-7.65c0.04-0.78-0.01-1.57-0.11-2.36c0.1,0.79,0.14,1.59,0.1,2.36
		C-1608.8,150.93-1611.92,152.35-1611.92,152.35z"/>
	<path class="st3" d="M-1677.97,320.75c-0.15,0.6-0.29,1.19-0.42,1.76l-1.61,72.51l1.61-72.51
		C-1678.27,321.93-1678.13,321.35-1677.97,320.75z"/>
	<path class="st3" d="M-1654.55,152.21c-4.28-3.31-5.85-6.59-6-9.53C-1660.4,145.62-1658.83,148.9-1654.55,152.21l-13.86,144.52
		c0,0-1.07,2.11-2.52,5.29c1.45-3.18,2.52-5.29,2.52-5.29L-1654.55,152.21z"/>
	<path class="st3" d="M-1660.45,140.78c0.09-0.62,0.24-1.21,0.43-1.78C-1660.21,139.57-1660.36,140.17-1660.45,140.78z"/>
	<path class="st3" d="M-1699.83,304.57l19.84-152.22c0,0-3.12-1.42-3.4-7.65c-0.03-0.63-0.01-1.27,0.05-1.91
		c-0.06,0.64-0.09,1.28-0.06,1.91c0.28,6.24,3.4,7.65,3.4,7.65l-13.19,101.16l-3.65,27.98L-1699.83,304.57
		c-0.01,0-21.83,28.91-22.12,49.04c-0.12,8.55-0.45,56.63-0.78,109.1h0.01c0.33-52.46,0.66-100.54,0.78-109.1
		C-1721.65,333.49-1699.83,304.57-1699.83,304.57z"/>
	<path class="st0" d="M-1681.69,136.34C-1681.69,136.34-1681.68,136.34-1681.69,136.34c0.07-0.17,0.14-0.35,0.21-0.51
		C-1681.55,136-1681.62,136.17-1681.69,136.34z"/>
	<path class="st2" d="M-1610.12,135.55c-0.1,0.1-0.2,0.19-0.3,0.28c0.19,0.47,0.38,0.96,0.56,1.47c-0.06-0.17-0.12-0.34-0.18-0.5
		c1-0.87,3.33-0.54,2.82-2.86c-0.01-0.05-0.02-0.1-0.03-0.15C-1607.67,134.89-1609.36,134.8-1610.12,135.55z"/>
	<path class="st2" d="M-1682.61,135.55c-0.51-0.51-1.45-0.63-2.14-0.99c0.02,1.64,1.98,1.46,2.88,2.24c0.06-0.15,0.12-0.3,0.18-0.45
		C-1682,136.11-1682.31,135.84-1682.61,135.55z"/>
	<path class="st2" d="M-1681.69,136.34c0.07-0.17,0.14-0.34,0.21-0.51c0,0,0,0,0,0c-0.1-0.09-0.2-0.18-0.29-0.28
		c-0.76-0.75-2.45-0.66-2.87-1.75c-0.01,0.05-0.02,0.1-0.03,0.15c-0.05,0.23-0.07,0.43-0.06,0.61c0.69,0.36,1.62,0.48,2.14,0.99
		C-1682.31,135.84-1682,136.11-1681.69,136.34z"/>
	<path class="st3" d="M-1723.03,511.78L-1723.03,511.78c-0.18,28.43-0.34,54.9-0.46,73.59l0.01,0
		C-1723.36,566.68-1723.2,540.21-1723.03,511.78z"/>
	<path class="st3" d="M-1723.47,585.37L-1723.47,585.37c-0.09,13.03-0.14,22.29-0.16,25.78l0.01,0
		C-1723.61,607.66-1723.55,598.41-1723.47,585.37z"/>
	<polygon class="st2" points="-1642.81,645.87 -1649.09,645.87 -1663.51,645.87 -1663.51,645.87 -1649.09,645.87 -1645.95,645.87 
		-1642.81,645.87 -1628.4,645.87 -1628.4,645.87 	"/>
	<path class="st5" d="M-1668.67,631.67c-0.36-0.05-0.7-0.11-1.02-0.16c-0.69-0.11-1.35-0.25-1.98-0.42c0.63,0.16,1.29,0.3,1.98,0.42
		C-1669.37,631.57-1669.03,631.62-1668.67,631.67z"/>
	<path class="st5" d="M-1680.67,625.51c0.37,0.46,0.78,0.91,1.23,1.35C-1679.89,626.42-1680.3,625.97-1680.67,625.51z"/>
	<path class="st2" d="M-1628.4,645.87L-1628.4,645.87l13.08,0c0.9-0.05,1.78-0.11,2.64-0.18c-0.87,0.07-1.75,0.13-2.65,0.18H-1628.4
		z"/>
	<path class="st3" d="M-1723.64,612.7c0,0,0-0.53,0.01-1.54l-0.01,0C-1723.64,612.17-1723.65,612.7-1723.64,612.7
		c-0.01,0,0.84,30.61,47.05,33.17h0.01C-1722.79,643.32-1723.64,612.7-1723.64,612.7z"/>
	<polygon class="st2" points="-1676.59,645.87 -1676.58,645.87 -1663.51,645.87 -1663.51,645.87 	"/>
	<path class="st0" d="M-1707.51,287.66l-102.13,58.96v189l76.39,44.1c0.4-66.29,1.29-210.87,1.5-226.26
		c0.28-20.02,16.94-44.89,22.52-52.67L-1707.51,287.66z"/>
	<path class="st0" d="M-1582.67,300.81c5.58,7.78,22.23,32.65,22.52,52.67v0c0.22,15.38,1.1,159.95,1.5,226.25l76.38-44.1v-189
		l-102.11-58.95L-1582.67,300.81z"/>
	<path class="st5" d="M-1704.65,437.67c0-18.19,9.96-34.14,24.65-42.65l1.61-72.51c0.12-0.57,0.26-1.16,0.42-1.76
		c0.36-1.4,0.8-2.86,1.29-4.33c0.76-2.32,1.65-4.68,2.55-6.93c0.25-0.61,0.49-1.22,0.74-1.81c0.16-0.38,0.32-0.76,0.47-1.13
		c0.23-0.53,0.45-1.05,0.67-1.55c0.17-0.39,0.34-0.78,0.51-1.15c0.28-0.64,0.56-1.24,0.82-1.82c1.45-3.18,2.52-5.29,2.52-5.29
		l13.86-144.52c-4.28-3.31-5.85-6.59-6-9.53c-0.03-0.65,0-1.29,0.1-1.9c0.09-0.62,0.24-1.21,0.43-1.78
		c0.19-0.57,0.43-1.12,0.69-1.64c0.13-0.26,0.27-0.51,0.41-0.76c0.24-0.41,0.49-0.79,0.75-1.16c-0.37-0.18-0.73-0.3-1.1-0.35
		c-0.67,0.09-1.33,0.4-1.98,0.95c-1.46,1.23-2.91,1.73-4.36,1.6c-1.46,0.13-2.92-0.4-4.36-1.56c-0.74-0.6-1.48-0.92-2.2-1.02
		c-0.84,0.09-1.67,0.48-2.47,1.11c-1.26,1-2.49,1.36-3.64,1.24c-1.21,0.12-2.35-0.3-3.4-1.07c-0.06,0.15-0.12,0.3-0.18,0.45
		c0,0,0,0,0.01,0c-0.56,1.49-1.05,3.14-1.33,4.82c-0.01,0.04-0.01,0.08-0.02,0.11c-0.05,0.3-0.09,0.61-0.12,0.91
		c0,0.05-0.01,0.1-0.01,0.14c-0.06,0.64-0.08,1.28-0.05,1.91c0.28,6.24,3.4,7.65,3.4,7.65l-19.84,152.22
		c0,0-21.83,28.91-22.11,49.04c-0.12,8.55-0.45,56.63-0.78,109.1h18.07V437.67z"/>
	<path class="st5" d="M-1659.27,135.09c0.36,0.05,0.73,0.17,1.1,0.35c0.06-0.09,0.12-0.17,0.18-0.26
		C-1658.42,135.06-1658.85,135.03-1659.27,135.09z"/>
	<path class="st5" d="M-1681.48,135.83c-0.07,0.17-0.14,0.34-0.2,0.52c1.05,0.78,2.19,1.19,3.4,1.07
		C-1679.43,137.3-1680.5,136.72-1681.48,135.83C-1681.48,135.83-1681.48,135.83-1681.48,135.83z"/>
	<path class="st5" d="M-1672.18,135.07c0.72,0.09,1.46,0.41,2.2,1.02c1.44,1.17,2.9,1.69,4.36,1.56c-1.18-0.1-2.36-0.62-3.53-1.56
		C-1670.17,135.25-1671.19,134.96-1672.18,135.07z"/>
	<path class="st5" d="M-1583.22,623.62c-0.83,0.34-1.68,0.66-2.53,0.98c-0.86,0.31-1.72,0.62-2.6,0.91
		c-1.75,0.59-3.55,1.13-5.37,1.64c-1.34,0.37-2.69,0.72-4.06,1.05c-1.12,0.27-2.25,0.53-3.39,0.78c-3.79,0.81-7.66,1.48-11.54,2.03
		c-1.15,0.16-2.3,0.31-3.45,0.45c-2.3,0.28-4.6,0.52-6.88,0.72c-1.14,0.1-2.28,0.19-3.41,0.27c-2.26,0.16-4.5,0.29-6.7,0.39
		c-1.1,0.05-2.19,0.09-3.27,0.12c-1.33,0.04-2.64,0.07-3.93,0.09c-1.29,0.02-2.56,0.03-3.81,0.03c-1.25,0-2.47-0.01-3.66-0.03
		c-0.02,0-0.03,0-0.05,0c-1.57-0.02-3.1-0.06-4.57-0.11c-0.03,0-0.07,0-0.1,0c-1.86-0.06-3.64-0.15-5.31-0.25
		c-1.88-0.11-3.63-0.24-5.23-0.38c-0.67-0.06-1.3-0.12-1.91-0.19c-0.92-0.1-1.77-0.2-2.55-0.3c-0.39-0.05-0.77-0.1-1.12-0.16
		c-0.36-0.05-0.7-0.1-1.02-0.16c-0.69-0.11-1.35-0.25-1.98-0.42c-0.63-0.16-1.23-0.35-1.8-0.56c-1.14-0.41-2.17-0.91-3.09-1.47
		c-0.62-0.37-1.19-0.77-1.71-1.19c-0.38-0.3-0.74-0.61-1.07-0.93c-0.02-0.02-0.05-0.04-0.07-0.06c-0.01-0.01-0.02-0.02-0.02-0.03
		c-0.45-0.43-0.85-0.89-1.23-1.35c-0.08-0.1-0.16-0.2-0.24-0.31c-0.23-0.29-0.44-0.59-0.64-0.89c-0.28-0.42-0.55-0.84-0.78-1.27
		c-0.15-0.27-0.29-0.53-0.42-0.8c-0.26-0.53-0.49-1.06-0.69-1.58c-0.1-0.26-0.19-0.52-0.28-0.78c-0.17-0.51-0.32-1.01-0.44-1.49
		c-0.18-0.69-0.3-1.33-0.4-1.92c-0.04-0.24-0.07-0.47-0.1-0.68c-0.02-0.19-0.05-0.37-0.06-0.54c-0.04-0.34-0.06-0.65-0.08-0.91
		c-0.04-0.65-0.03-1.04-0.03-1.04l0.12-5.56l0.65-29.5c-12.44-8.94-20.59-23.57-20.59-40.03v-26.45h-18.38
		c-0.18,28.44-0.34,54.9-0.45,73.6c-0.08,13.04-0.13,22.29-0.15,25.79c-0.01,1.01-0.01,1.54-0.01,1.54s0.85,30.61,47.05,33.17h13.07
		h14.42h6.28h14.42h13.08c0.9-0.05,1.78-0.11,2.65-0.18c0.21-0.02,0.41-0.04,0.62-0.05c0.7-0.06,1.39-0.13,2.07-0.21
		c0.17-0.02,0.34-0.04,0.5-0.05c0.84-0.1,1.66-0.2,2.46-0.32c0.06-0.01,0.11-0.02,0.17-0.03c0.74-0.11,1.46-0.23,2.17-0.35
		c0.17-0.03,0.33-0.06,0.49-0.09c0.69-0.13,1.36-0.26,2.02-0.4c0.07-0.01,0.14-0.03,0.21-0.04c0.75-0.16,1.48-0.33,2.2-0.51
		c0.08-0.02,0.16-0.04,0.24-0.06c0.63-0.16,1.24-0.32,1.84-0.49c0.12-0.03,0.23-0.07,0.35-0.1c1.35-0.39,2.65-0.81,3.88-1.26
		c0.07-0.03,0.14-0.05,0.21-0.08c0.56-0.21,1.12-0.42,1.65-0.64c0.06-0.02,0.12-0.05,0.17-0.07c1.19-0.49,2.32-1.01,3.38-1.55
		c0.05-0.02,0.09-0.05,0.14-0.07c1.62-0.83,3.11-1.7,4.48-2.62c0.01-0.01,0.02-0.01,0.03-0.02c0.48-0.32,0.94-0.65,1.39-0.98
		c0.13-0.1,0.26-0.2,0.38-0.29c0.31-0.23,0.62-0.47,0.92-0.71c0.14-0.12,0.28-0.23,0.42-0.35c0.27-0.22,0.54-0.45,0.8-0.67
		c0.14-0.12,0.27-0.24,0.41-0.37c0.25-0.22,0.49-0.45,0.73-0.67c0.13-0.12,0.25-0.25,0.38-0.37c0.23-0.23,0.46-0.45,0.68-0.68
		c0.12-0.12,0.23-0.24,0.34-0.36c0.22-0.24,0.44-0.47,0.65-0.71c0.1-0.11,0.2-0.23,0.3-0.34c0.21-0.25,0.42-0.5,0.63-0.74
		c0.08-0.1,0.17-0.2,0.25-0.31c0.21-0.26,0.41-0.52,0.61-0.79c0.06-0.09,0.13-0.17,0.19-0.26c0.21-0.28,0.41-0.57,0.61-0.85
		c0.04-0.06,0.09-0.13,0.13-0.19c0.21-0.32,0.42-0.63,0.62-0.94c0.02-0.03,0.04-0.06,0.06-0.09c0.31-0.5,0.6-0.99,0.87-1.48
		c0.08-0.14,0.15-0.28,0.22-0.42c0.19-0.35,0.37-0.7,0.54-1.04c0.07-0.15,0.14-0.29,0.21-0.44c0.16-0.34,0.32-0.68,0.46-1.02
		c0.05-0.12,0.1-0.24,0.15-0.36c0.17-0.4,0.32-0.79,0.47-1.18c0.01-0.04,0.03-0.08,0.04-0.11c0.15-0.41,0.29-0.81,0.41-1.2
		c0.01-0.04,0.03-0.08,0.04-0.12c0.09-0.29,0.18-0.58,0.26-0.85c0-0.02,0.01-0.03,0.01-0.05c0.24-0.84,0.41-1.6,0.54-2.26
		c0-0.02,0.01-0.03,0.01-0.05C-1572.77,618.71-1577.73,621.41-1583.22,623.62z"/>
	<path class="st4" d="M-1614.47,137.42c-1.15,0.11-2.37-0.24-3.62-1.24c-0.8-0.63-1.62-1.02-2.47-1.11
		c-0.72,0.09-1.46,0.41-2.2,1.02c-1.44,1.17-2.9,1.69-4.36,1.56c-1.45,0.13-2.91-0.37-4.36-1.6c-0.65-0.55-1.31-0.86-1.98-0.95
		c-0.68,0.09-1.36,0.4-2.05,0.95c-1.5,1.2-3.02,1.82-4.56,1.68c-1.37,0.12-2.76-0.34-4.18-1.51c-0.7-0.58-1.41-0.84-2.12-0.89
		c-0.71,0.05-1.43,0.31-2.12,0.89c-1.42,1.18-2.81,1.63-4.18,1.51c-1.54,0.14-3.06-0.48-4.56-1.68c-0.32-0.25-0.63-0.44-0.95-0.6
		c-0.26,0.37-0.51,0.75-0.75,1.16c-0.14,0.25-0.28,0.5-0.41,0.76c-0.26,0.52-0.5,1.07-0.69,1.64c-0.19,0.57-0.34,1.17-0.43,1.78
		s-0.13,1.25-0.1,1.9c0.15,2.94,1.72,6.22,6,9.53l-13.86,144.52c0,0-1.07,2.11-2.52,5.29c-0.26,0.57-0.54,1.18-0.82,1.82
		c-0.17,0.38-0.34,0.76-0.51,1.15c-0.22,0.51-0.44,1.02-0.67,1.55c-0.16,0.37-0.32,0.75-0.47,1.13c-0.25,0.59-0.5,1.2-0.74,1.81
		c-0.9,2.25-1.79,4.61-2.55,6.93c-0.49,1.48-0.93,2.94-1.29,4.33c-0.15,0.6-0.29,1.19-0.42,1.76l-1.61,72.51
		c7.16-4.15,15.44-6.53,24.25-6.53h20.73c26.9,0,48.91,22.13,48.91,49.19v25.04h16.92c-0.33-52.46-0.66-100.54-0.78-109.1
		c-0.28-20.13-22.11-49.04-22.11-49.04l-19.84-152.22c0,0,3.12-1.42,3.4-7.65c0.04-0.78,0-1.57-0.1-2.36c0-0.01,0-0.02,0-0.03
		c-0.05-0.38-0.11-0.77-0.18-1.15c0-0.02-0.01-0.03-0.01-0.05c-0.07-0.35-0.14-0.7-0.23-1.04c-0.04-0.15-0.07-0.29-0.11-0.44
		c-0.05-0.18-0.1-0.37-0.15-0.55c-0.06-0.21-0.12-0.41-0.19-0.62c-0.03-0.1-0.06-0.2-0.09-0.3c-0.08-0.25-0.16-0.5-0.25-0.74
		c-0.01-0.04-0.03-0.08-0.04-0.11c-0.18-0.51-0.37-1-0.56-1.47C-1611.64,136.94-1613.01,137.57-1614.47,137.42z"/>
	<path class="st4" d="M-1676.68,316.42c0.76-2.32,1.65-4.68,2.55-6.93C-1675.04,311.73-1675.92,314.1-1676.68,316.42z"/>
	<path class="st4" d="M-1652.67,137.72c-1.26-0.11-2.49-0.7-3.72-1.68c-0.54-0.43-1.07-0.7-1.6-0.85c-0.06,0.08-0.12,0.17-0.18,0.26
		c0.32,0.16,0.63,0.35,0.95,0.6C-1655.72,137.24-1654.21,137.86-1652.67,137.72z"/>
	<path class="st4" d="M-1620.55,135.07c0.84,0.09,1.67,0.48,2.47,1.11c1.26,1,2.47,1.35,3.62,1.24c-0.9-0.09-1.83-0.48-2.79-1.24
		C-1618.31,135.34-1619.42,134.92-1620.55,135.07z"/>
	<path class="st4" d="M-1633.46,135.09c0.67,0.09,1.33,0.4,1.98,0.95c1.46,1.23,2.91,1.73,4.36,1.6c-1.17-0.1-2.35-0.61-3.53-1.6
		C-1631.57,135.26-1632.51,134.96-1633.46,135.09z"/>
	<path class="st4" d="M-1645.95,135.3c-0.14-0.01-0.28,0.01-0.42,0.02c0.71,0.05,1.43,0.31,2.12,0.89c1.42,1.18,2.81,1.63,4.18,1.51
		c-1.1-0.1-2.21-0.57-3.34-1.51C-1644.24,135.52-1645.1,135.26-1645.95,135.3z"/>
	<path class="st4" d="M-1645.96,615.49l0.01-0.05l-0.01,0C-1645.96,615.46-1645.96,615.48-1645.96,615.49z"/>
	<path class="st4" d="M-1597.79,628.2c1.37-0.33,2.73-0.68,4.06-1.05c1.83-0.51,3.62-1.05,5.37-1.64c0.88-0.29,1.74-0.6,2.6-0.91
		c0.86-0.31,1.7-0.64,2.53-0.98c5.49-2.22,10.46-4.91,14.59-8.18c0,0,0,0,0,0l0,0c0.33-1.69,0.37-2.74,0.37-2.74s0-0.53-0.01-1.55
		l-0.6-99.38h-17.23v26.45c0,27.05-22.01,49.19-48.91,49.19h-20.73c-10.53,0-20.31-3.41-28.31-9.16l-0.65,29.5l-0.12,5.56
		c0,0-0.01,0.38,0.03,1.03c0.3,4.98,2.43,10.31,6.39,13.49c3.93,3.15,9.21,3.92,14.23,4.38c14.6,1.35,29.36,1.19,43.95-0.32
		c6.15-0.64,12.25-1.41,18.3-2.7"/>
	<path class="st1" d="M-1645.4,116.3c3.33,0,6.67-0.05,10-0.07c-3.61,0.02-7.22,0.07-10.83,0.07c0.09,0,0.19,0,0.28,0
		C-1645.76,116.3-1645.58,116.3-1645.4,116.3z"/>
	<path class="st1" d="M-1684.65,133.8c-0.11-0.29-0.14-0.66-0.03-1.16c2.23-10.31,5.63-15.8,18.05-16.29
		c3.09-0.12,6.19-0.14,9.29-0.12c-3.38-0.02-6.75-0.01-10.12,0.12c-12.42,0.49-15.81,5.98-18.05,16.29
		c-0.24,1.11,0.17,1.61,0.77,1.92c0-0.18,0.01-0.38,0.06-0.61C-1684.67,133.89-1684.66,133.85-1684.65,133.8z"/>
	<path class="st1" d="M-1465.46,330.45l-122.57-70.76l-13.59-104.23c1.58-2.62,2.71-6.04,2.9-10.32c0.07-1.5-0.02-3.07-0.26-4.7
		c1.69-2.74,1.92-5.93,1.34-8.57c-2.48-11.44-7.66-23.24-27.25-24.01c-4.86-0.19-9.69-0.14-14.35-0.1
		c-2.05,0.02-4.11,0.04-6.17,0.04h-1.1c-2.05,0-4.11-0.02-6.16-0.04c-4.68-0.05-9.5-0.09-14.35,0.1
		c-19.59,0.77-24.77,12.57-27.25,24.02c-0.57,2.63-0.34,5.8,1.35,8.54c-0.24,1.64-0.33,3.22-0.26,4.73c0.19,4.28,1.32,7.7,2.9,10.32
		l-13.59,104.22l-122.58,70.77c-3.47,2-5.6,5.7-5.6,9.7V542.1c0,4,2.14,7.7,5.6,9.7l93.04,53.72c-0.03,4.37-0.04,6.89-0.04,7.13
		l0,0.33c0.38,13.71,12.64,40.27,56.32,42.68l62.08,0.02l0.27-0.02c43.68-2.41,55.93-28.97,56.31-42.68l0-0.33
		c0-0.24-0.02-2.76-0.04-7.13l93.03-53.71c3.47-2,5.6-5.7,5.6-9.7V340.15C-1459.86,336.15-1462,332.45-1465.46,330.45z
		 M-1699.83,304.57l3.01-23.08l3.65-27.98l13.19-101.16c0,0-3.12-1.42-3.4-7.65c-0.03-0.63,0-1.27,0.06-1.91
		c0-0.05,0.01-0.1,0.01-0.14c0.03-0.3,0.07-0.61,0.12-0.91c0.01-0.04,0.01-0.08,0.02-0.11c0.27-1.68,0.76-3.33,1.32-4.82
		c-0.91-0.78-2.86-0.6-2.88-2.24c-0.6-0.32-1.01-0.81-0.77-1.92c2.23-10.31,5.63-15.8,18.05-16.29c3.37-0.13,6.74-0.14,10.12-0.12
		c3.61,0.02,7.23,0.07,10.85,0.07c0.09,0,0.18,0,0.27,0c3.61,0,7.22-0.06,10.83-0.07c3.38-0.02,6.76-0.01,10.13,0.12
		c12.42,0.49,15.81,5.98,18.05,16.29c0.11,0.5,0.08,0.87-0.03,1.16c0.01,0.05,0.02,0.1,0.03,0.15c0.5,2.32-1.82,1.99-2.82,2.86
		c0.06,0.16,0.12,0.33,0.18,0.5c0.01,0.04,0.03,0.08,0.04,0.11c0.09,0.24,0.17,0.49,0.25,0.74c0.03,0.1,0.06,0.2,0.09,0.3
		c0.06,0.21,0.13,0.41,0.19,0.62c0.05,0.18,0.1,0.37,0.15,0.55c0.04,0.15,0.08,0.29,0.11,0.44c0.08,0.34,0.16,0.69,0.23,1.04
		c0,0.02,0.01,0.03,0.01,0.05c0.07,0.38,0.13,0.77,0.18,1.15c0,0.01,0,0.02,0,0.03c0.1,0.79,0.14,1.59,0.11,2.36
		c-0.28,6.24-3.4,7.65-3.4,7.65l13.19,101.16l3.65,27.98v0l3.01,23.08c0,0,21.83,28.91,22.11,49.04c0.12,8.55,0.45,56.63,0.78,109.1
		h-0.01h-16.92v-25.04c0-27.05-22.01-49.19-48.91-49.19h-20.73c-8.81,0-17.09,2.39-24.25,6.53c-14.7,8.51-24.65,24.46-24.65,42.65
		v25.04h-18.07h-0.01c0.33-52.46,0.66-100.54,0.78-109.1C-1721.66,333.49-1699.83,304.57-1699.83,304.57z M-1733.25,579.73
		l-76.39-44.1v-189l102.13-58.96l-1.71,13.15c-5.58,7.78-22.24,32.65-22.52,52.67C-1731.96,368.86-1732.85,513.44-1733.25,579.73z
		 M-1569.19,617.75c0,0.02-0.01,0.03-0.01,0.05c-0.08,0.28-0.16,0.56-0.26,0.85c-0.01,0.04-0.03,0.08-0.04,0.12
		c-0.13,0.39-0.26,0.78-0.41,1.2c0,0.01-0.01,0.02-0.01,0.03c-0.01,0.03-0.02,0.06-0.03,0.09c-0.14,0.38-0.3,0.78-0.47,1.18
		c-0.05,0.12-0.1,0.24-0.15,0.36c-0.14,0.33-0.3,0.67-0.46,1.02c-0.07,0.15-0.14,0.29-0.21,0.44c-0.17,0.34-0.35,0.69-0.54,1.04
		c-0.07,0.14-0.14,0.28-0.22,0.42c-0.27,0.49-0.56,0.98-0.87,1.48c-0.02,0.03-0.04,0.06-0.06,0.09c-0.2,0.31-0.4,0.63-0.62,0.94
		c-0.04,0.06-0.09,0.12-0.13,0.19c-0.2,0.28-0.4,0.57-0.61,0.85c-0.06,0.09-0.13,0.17-0.19,0.26c-0.2,0.26-0.4,0.52-0.61,0.79
		c-0.08,0.1-0.16,0.2-0.25,0.31c-0.2,0.25-0.41,0.5-0.63,0.74c-0.1,0.11-0.2,0.23-0.3,0.34c-0.21,0.24-0.43,0.47-0.65,0.71
		c-0.11,0.12-0.23,0.24-0.34,0.36c-0.22,0.23-0.45,0.46-0.68,0.68c-0.13,0.12-0.25,0.25-0.38,0.37c-0.24,0.23-0.48,0.45-0.73,0.67
		c-0.14,0.12-0.27,0.25-0.41,0.37c-0.26,0.23-0.53,0.45-0.8,0.67c-0.14,0.12-0.28,0.23-0.42,0.35c-0.3,0.24-0.61,0.47-0.92,0.71
		c-0.13,0.1-0.25,0.2-0.38,0.29c-0.45,0.33-0.91,0.65-1.39,0.98c-0.01,0.01-0.02,0.01-0.03,0.02c-1.37,0.91-2.86,1.79-4.48,2.62
		c-0.05,0.02-0.09,0.05-0.14,0.07c-1.07,0.54-2.2,1.06-3.38,1.55c-0.06,0.02-0.12,0.05-0.17,0.07c-0.54,0.22-1.09,0.44-1.65,0.64
		c-0.07,0.03-0.14,0.05-0.21,0.08c-1.23,0.45-2.52,0.87-3.88,1.26c-0.11,0.03-0.23,0.07-0.35,0.1c-0.6,0.17-1.22,0.34-1.84,0.49
		c-0.08,0.02-0.16,0.04-0.24,0.06c-0.72,0.18-1.45,0.35-2.2,0.51c-0.07,0.01-0.14,0.03-0.21,0.04c-0.66,0.14-1.34,0.27-2.02,0.4
		c-0.16,0.03-0.33,0.06-0.49,0.09c-0.71,0.12-1.43,0.24-2.17,0.35c-0.06,0.01-0.11,0.02-0.17,0.03c-0.8,0.12-1.63,0.22-2.46,0.32
		c-0.17,0.02-0.34,0.04-0.5,0.05c-0.68,0.08-1.37,0.14-2.07,0.21c-0.21,0.02-0.41,0.04-0.62,0.05c-0.87,0.07-1.74,0.13-2.64,0.18
		h-13.08h-14.41h-3.14h-3.14h-14.43h-13.07c0,0,0,0,0,0h-0.01c-46.21-2.55-47.06-33.17-47.06-33.17s0-0.53,0.01-1.55
		c0.02-3.5,0.08-12.75,0.15-25.79c0.11-18.69,0.27-45.16,0.45-73.59h0.01h18.38v26.45c0,16.46,8.15,31.08,20.59,40.03
		c8.01,5.76,17.78,9.16,28.31,9.16h20.73c26.9,0,48.91-22.13,48.91-49.19v-26.45h17.23h0.01c0.18,28.43,0.34,54.9,0.45,73.59v0
		c0.08,13.04,0.13,22.29,0.15,25.79c0.01,1.01,0.01,1.55,0.01,1.55S-1568.32,614.72-1569.19,617.75z M-1482.27,535.63l-76.38,44.1
		c-0.4-66.3-1.29-210.86-1.5-226.25v0c-0.28-20.02-16.94-44.89-22.52-52.67l-1.71-13.14l102.11,58.95V535.63z"/>
	<path class="st0" d="M-1649.32,136.21c-1.13,0.94-2.24,1.42-3.34,1.51c1.37,0.12,2.76-0.34,4.18-1.51c0.7-0.58,1.41-0.84,2.12-0.89
		c-0.14-0.01-0.28-0.02-0.42-0.02C-1647.63,135.26-1648.49,135.52-1649.32,136.21z"/>
	<path class="st0" d="M-1675.47,136.18c-0.96,0.76-1.9,1.15-2.81,1.24c1.16,0.12,2.38-0.24,3.64-1.24c0.8-0.63,1.62-1.02,2.47-1.11
		C-1673.31,134.92-1674.42,135.34-1675.47,136.18z"/>
	<path class="st0" d="M-1614.47,137.42c1.46,0.15,2.82-0.48,4.04-1.58c-0.07-0.18-0.14-0.35-0.22-0.52
		c-0.11,0.07-0.22,0.14-0.31,0.23C-1612.02,136.6-1613.2,137.29-1614.47,137.42z"/>
	<path class="st0" d="M-1623.59,136.08c-1.17,0.95-2.35,1.46-3.53,1.56c1.46,0.13,2.92-0.4,4.36-1.56c0.74-0.6,1.48-0.92,2.2-1.02
		C-1621.54,134.96-1622.55,135.25-1623.59,136.08z"/>
	<path class="st0" d="M-1662.08,136.04c-1.18,0.99-2.36,1.5-3.53,1.6c1.45,0.13,2.91-0.37,4.36-1.6c0.65-0.55,1.31-0.86,1.98-0.95
		C-1660.22,134.96-1661.16,135.27-1662.08,136.04z"/>
	<path class="st0" d="M-1636.34,136.04c-1.23,0.98-2.47,1.57-3.72,1.68c1.54,0.14,3.06-0.48,4.56-1.68
		c0.69-0.55,1.37-0.86,2.05-0.95C-1634.41,134.96-1635.37,135.27-1636.34,136.04z"/>
	<path class="st0" d="M-1608.05,132.64c0.47,2.15-1.5,2.02-2.59,2.68c0.07,0.17,0.14,0.34,0.22,0.52c0.1-0.09,0.2-0.19,0.3-0.28
		c0.76-0.75,2.45-0.66,2.87-1.75c-0.91-4.16-2.03-7.51-3.85-10.07C-1609.73,126.12-1608.82,129.09-1608.05,132.64z"/>
	<path class="st0" d="M-1646.78,116.3c0.09,0,0.19,0,0.28,0c-3.61,0-7.23-0.06-10.85-0.07c3.34,0.02,6.68,0.07,10.01,0.07
		C-1647.15,116.3-1646.96,116.3-1646.78,116.3z"/>
	<path class="st0" d="M-1607.21,132.64c-2.23-10.31-5.63-15.8-18.05-16.29c-3.37-0.13-6.75-0.14-10.13-0.12
		c-3.33,0.02-6.67,0.07-10,0.07c-0.18,0-0.37,0-0.55,0c-0.09,0-0.19,0-0.28,0c-0.09,0-0.18,0-0.27,0c-0.09,0-0.19,0-0.28,0
		c-0.18,0-0.37,0-0.55,0c-3.34,0-6.68-0.05-10.01-0.07c-3.1-0.01-6.19,0-9.29,0.12c-12.42,0.49-15.81,5.98-18.05,16.29
		c-0.11,0.5-0.08,0.87,0.03,1.16c0.43,1.09,2.11,1,2.87,1.75c0.1,0.1,0.2,0.19,0.29,0.28c0.98,0.89,2.06,1.48,3.2,1.59
		c0.9-0.09,1.84-0.48,2.81-1.24c1.06-0.84,2.16-1.26,3.3-1.11c0.99-0.11,2,0.18,3.03,1.02c1.17,0.95,2.35,1.46,3.53,1.56
		c1.17-0.1,2.35-0.61,3.53-1.6c0.92-0.78,1.86-1.08,2.81-0.95c0.42-0.06,0.85-0.03,1.28,0.1c0.53,0.15,1.06,0.43,1.6,0.85
		c1.23,0.98,2.47,1.57,3.72,1.68c1.1-0.1,2.21-0.57,3.34-1.51c0.83-0.69,1.69-0.95,2.54-0.91c0.14-0.01,0.28,0.01,0.42,0.02
		c0.14-0.01,0.28-0.02,0.42-0.02c0.85-0.04,1.71,0.21,2.54,0.91c1.13,0.94,2.24,1.42,3.34,1.51c1.26-0.11,2.49-0.7,3.72-1.68
		c0.97-0.77,1.93-1.08,2.88-0.95c0.95-0.13,1.89,0.17,2.81,0.95c1.18,0.99,2.36,1.5,3.53,1.6c1.18-0.1,2.36-0.62,3.53-1.56
		c1.03-0.83,2.05-1.13,3.03-1.02c1.14-0.15,2.24,0.27,3.3,1.11c0.96,0.76,1.89,1.15,2.79,1.24c1.27-0.12,2.45-0.81,3.51-1.87
		c0.09-0.09,0.2-0.17,0.31-0.23c1.09-0.66,3.06-0.53,2.59-2.68c-0.77-3.55-1.69-6.51-3.05-8.91c1.82,2.56,2.94,5.92,3.85,10.07
		C-1607.13,133.51-1607.11,133.13-1607.21,132.64z"/>
</g>
<g>
	<g>
		<path class="st1" d="M1680.24,734.32c-2.6-2.52-3.9-5.71-3.9-9.57c0-3.94,1.28-7.12,3.84-9.57c2.56-2.44,5.77-3.66,9.62-3.66
			c3.94,0,7.16,1.22,9.68,3.66c2.52,2.44,3.78,5.63,3.78,9.57c0,3.86-1.28,7.05-3.84,9.57c-2.56,2.52-5.77,3.78-9.63,3.78
			C1686.03,738.1,1682.84,736.84,1680.24,734.32z"/>
		<path class="st1" d="M1473.45,673.13h15.23v16.77h-14.64v44.87h-22.44V689.9h-9.33v-16.77h9.33v-1.65
			c0-7.79,2.34-13.97,7.03-18.54c4.68-4.57,11.24-6.85,19.66-6.85c2.83,0,5.59,0.28,8.27,0.83c2.68,0.55,4.88,1.38,6.61,2.48
			l-5.55,15.82c-2.2-1.26-4.45-1.89-6.73-1.89c-2.36,0-4.19,0.71-5.49,2.13c-1.3,1.42-1.95,3.5-1.95,6.26V673.13z"/>
		<path class="st1" d="M1533.87,671.89c3.66-1.46,7.85-2.18,12.58-2.18v20.19c-2.05-0.24-3.74-0.35-5.08-0.35
			c-4.8,0-8.56,1.3-11.28,3.9c-2.72,2.6-4.07,6.57-4.07,11.93v29.4h-22.44v-64.01h21.37v7.68
			C1527.24,675.53,1530.21,673.35,1533.87,671.89z"/>
		<path class="st1" d="M1562.34,660.3c-2.52-2.28-3.78-5.12-3.78-8.5c0-3.38,1.26-6.22,3.78-8.5c2.52-2.28,5.82-3.42,9.92-3.42
			c4.09,0,7.4,1.08,9.92,3.25c2.52,2.17,3.78,4.94,3.78,8.33c0,3.54-1.26,6.48-3.78,8.8c-2.52,2.32-5.83,3.48-9.92,3.48
			C1568.17,663.72,1564.86,662.58,1562.34,660.3z M1561.04,670.81h22.44v64.01h-22.44V670.81z"/>
		<path class="st1" d="M1653.36,676.97c5.59,4.84,8.38,12.26,8.38,22.26v35.55h-20.9v-8.27c-3.23,6.22-9.53,9.33-18.9,9.33
			c-4.96,0-9.25-0.87-12.87-2.6c-3.62-1.73-6.36-4.07-8.21-7.03c-1.85-2.95-2.78-6.32-2.78-10.1c0-6.06,2.32-10.76,6.97-14.11
			c4.64-3.35,11.81-5.02,21.49-5.02h12.75c-0.39-6.77-4.92-10.16-13.58-10.16c-3.07,0-6.18,0.49-9.33,1.48
			c-3.15,0.99-5.83,2.34-8.03,4.07l-7.56-15.23c3.54-2.36,7.85-4.19,12.93-5.49c5.08-1.3,10.17-1.95,15.29-1.95
			C1639.66,669.7,1647.77,672.12,1653.36,676.97z M1635.05,719.77c1.97-1.26,3.39-3.11,4.25-5.55v-5.55h-9.68
			c-6.54,0-9.8,2.17-9.8,6.5c0,1.97,0.75,3.54,2.24,4.72c1.49,1.18,3.54,1.77,6.14,1.77
			C1630.8,721.66,1633.08,721.03,1635.05,719.77z"/>
		<path class="st1" d="M1698.67,755.85l5.67-15.94c2.05,1.26,4.37,1.89,6.97,1.89c2.05,0,3.66-0.71,4.84-2.13
			c1.18-1.42,1.77-3.5,1.77-6.26v-62.23h22.44v62.35c0,7.87-2.3,14.11-6.91,18.72c-4.6,4.61-11,6.91-19.19,6.91
			C1707.73,759.16,1702.53,758.06,1698.67,755.85z M1719.22,660.67c-2.52-2.28-3.78-5.12-3.78-8.5c0-3.38,1.26-6.22,3.78-8.5
			c2.52-2.28,5.83-3.42,9.92-3.42c4.09,0,7.4,1.08,9.92,3.25c2.52,2.17,3.78,4.94,3.78,8.33c0,3.54-1.26,6.48-3.78,8.8
			c-2.52,2.32-5.83,3.48-9.92,3.48C1725.05,664.1,1721.74,662.96,1719.22,660.67z"/>
		<path class="st1" d="M1767.54,734c-5.2-1.22-9.37-2.81-12.52-4.78l6.73-15.35c2.91,1.81,6.38,3.25,10.39,4.31
			c4.02,1.06,7.99,1.59,11.93,1.59c3.62,0,6.2-0.37,7.73-1.12c1.53-0.75,2.3-1.83,2.3-3.25c0-1.42-0.93-2.42-2.78-3.01
			c-1.85-0.59-4.78-1.16-8.8-1.71c-5.12-0.63-9.47-1.46-13.05-2.48c-3.58-1.02-6.67-2.91-9.27-5.67c-2.6-2.75-3.9-6.61-3.9-11.57
			c0-4.09,1.22-7.73,3.66-10.92c2.44-3.19,6-5.71,10.69-7.56c4.68-1.85,10.29-2.78,16.83-2.78c4.65,0,9.25,0.47,13.82,1.42
			c4.56,0.94,8.38,2.28,11.45,4.02l-6.73,15.23c-5.67-3.15-11.81-4.72-18.42-4.72c-3.54,0-6.14,0.41-7.79,1.24
			c-1.65,0.83-2.48,1.91-2.48,3.25c0,1.5,0.9,2.54,2.72,3.13c1.81,0.59,4.8,1.2,8.97,1.83c5.27,0.79,9.64,1.69,13.11,2.72
			c3.46,1.02,6.47,2.89,9.03,5.61c2.56,2.72,3.84,6.51,3.84,11.4c0,4.02-1.22,7.62-3.66,10.81c-2.44,3.19-6.04,5.69-10.8,7.5
			c-4.76,1.81-10.49,2.72-17.18,2.72C1778.01,735.83,1772.73,735.22,1767.54,734z"/>
	</g>
	<path class="st2" d="M1631.74,605.55h-6.28h-27.49c0,0,0,0,0,0h27.5h3.14L1631.74,605.55l27.5,0c0.9-0.05,1.78-0.11,2.64-0.18
		c-0.87,0.07-1.75,0.13-2.65,0.18H1631.74z"/>
	<g>
		<path class="st3" d="M1592.91,97.7c-0.06,0.15-0.12,0.3-0.18,0.45C1592.79,98,1592.85,97.86,1592.91,97.7
			C1592.91,97.7,1592.91,97.7,1592.91,97.7z"/>
		<path class="st3" d="M1592.73,98.16c-0.56,1.49-1.05,3.15-1.32,4.82C1591.68,101.31,1592.18,99.65,1592.73,98.16
			C1592.74,98.16,1592.73,98.16,1592.73,98.16z"/>
		<path class="st3" d="M1662.68,113.71l19.84,152.22c0,0,21.83,28.91,22.11,49.04c0.12,8.55,0.45,56.63,0.78,109.1h0.01
			c-0.33-52.46-0.66-100.54-0.78-109.1c-0.28-20.13-22.11-49.04-22.11-49.04l-3.01-23.08v0l-3.65-27.98L1662.68,113.71
			c0.01,0,3.13-1.42,3.41-7.65c0.04-0.78-0.01-1.57-0.11-2.36c0.1,0.79,0.14,1.59,0.1,2.36
			C1665.8,112.29,1662.68,113.71,1662.68,113.71z"/>
		<path class="st3" d="M1596.62,282.11c-0.15,0.6-0.29,1.19-0.42,1.76l-1.61,72.51l1.61-72.51
			C1596.33,283.29,1596.47,282.71,1596.62,282.11z"/>
		<path class="st3" d="M1620.05,113.57c-4.28-3.31-5.85-6.59-6-9.53C1614.19,106.98,1615.77,110.26,1620.05,113.57l-13.86,144.52
			c0,0-1.07,2.11-2.52,5.29c1.45-3.18,2.52-5.29,2.52-5.29L1620.05,113.57z"/>
		<path class="st3" d="M1614.14,102.14c0.09-0.62,0.24-1.21,0.43-1.78C1614.39,100.93,1614.24,101.53,1614.14,102.14z"/>
		<path class="st3" d="M1574.77,265.93l19.84-152.22c0,0-3.12-1.42-3.4-7.65c-0.03-0.63-0.01-1.27,0.05-1.91
			c-0.06,0.64-0.09,1.28-0.06,1.91c0.28,6.24,3.4,7.65,3.4,7.65l-13.19,101.16l-3.65,27.98L1574.77,265.93
			c-0.01,0-21.83,28.91-22.12,49.04c-0.12,8.55-0.45,56.63-0.78,109.1h0.01c0.33-52.46,0.66-100.54,0.78-109.1
			C1552.94,294.85,1574.77,265.93,1574.77,265.93z"/>
		<path class="st0" d="M1592.91,97.7C1592.91,97.7,1592.91,97.7,1592.91,97.7c0.07-0.17,0.14-0.35,0.21-0.51
			C1593.04,97.36,1592.98,97.53,1592.91,97.7z"/>
		<path class="st2" d="M1664.48,96.91c-0.1,0.1-0.2,0.19-0.3,0.28c0.19,0.47,0.38,0.96,0.56,1.47c-0.06-0.17-0.12-0.34-0.18-0.5
			c1-0.87,3.33-0.54,2.82-2.86c-0.01-0.05-0.02-0.1-0.03-0.15C1666.92,96.25,1665.23,96.16,1664.48,96.91z"/>
		<path class="st2" d="M1591.99,96.91c-0.51-0.51-1.45-0.63-2.14-0.99c0.02,1.64,1.98,1.46,2.88,2.24c0.06-0.15,0.12-0.3,0.18-0.45
			C1592.59,97.47,1592.28,97.2,1591.99,96.91z"/>
		<path class="st2" d="M1592.91,97.7c0.07-0.17,0.14-0.34,0.21-0.51c0,0,0,0,0,0c-0.1-0.09-0.2-0.18-0.29-0.28
			c-0.76-0.75-2.45-0.66-2.87-1.75c-0.01,0.05-0.02,0.1-0.03,0.15c-0.05,0.23-0.07,0.43-0.06,0.61c0.69,0.36,1.62,0.48,2.14,0.99
			C1592.28,97.2,1592.59,97.47,1592.91,97.7z"/>
		<path class="st3" d="M1551.57,473.14L1551.57,473.14c-0.18,28.43-0.34,54.9-0.46,73.59l0.01,0
			C1551.23,528.04,1551.39,501.57,1551.57,473.14z"/>
		<path class="st3" d="M1551.12,546.73L1551.12,546.73c-0.09,13.03-0.14,22.29-0.16,25.78l0.01,0
			C1550.99,569.02,1551.04,559.77,1551.12,546.73z"/>
		<polygon class="st2" points="1631.78,607.23 1625.5,607.23 1611.08,607.23 1611.08,607.23 1625.51,607.23 1628.65,607.23 
			1631.79,607.23 1646.2,607.23 1646.2,607.23 		"/>
		<path class="st5" d="M1605.92,593.03c-0.36-0.05-0.7-0.11-1.02-0.16c-0.69-0.11-1.35-0.25-1.98-0.42c0.63,0.16,1.29,0.3,1.98,0.42
			C1605.22,592.93,1605.56,592.98,1605.92,593.03z"/>
		<path class="st5" d="M1593.92,586.87c0.37,0.46,0.78,0.91,1.23,1.35C1594.7,587.78,1594.3,587.33,1593.92,586.87z"/>
		<path class="st2" d="M1646.2,607.23L1646.2,607.23l13.08,0c0.9-0.05,1.78-0.11,2.64-0.18c-0.87,0.07-1.75,0.13-2.65,0.18H1646.2z"
			/>
		<path class="st3" d="M1550.96,574.06c0,0,0-0.53,0.01-1.54l-0.01,0C1550.95,573.53,1550.95,574.06,1550.96,574.06
			c-0.01,0,0.84,30.61,47.05,33.17h0.01C1551.81,604.68,1550.96,574.06,1550.96,574.06z"/>
		<polygon class="st2" points="1598.01,607.23 1598.01,607.23 1611.08,607.23 1611.08,607.23 		"/>
		<path class="st0" d="M1567.08,249.02l-102.13,58.96v189l76.39,44.1c0.4-66.29,1.29-210.87,1.5-226.26
			c0.28-20.02,16.94-44.89,22.52-52.67L1567.08,249.02z"/>
		<path class="st0" d="M1691.93,262.17c5.58,7.78,22.23,32.65,22.52,52.67v0c0.22,15.38,1.1,159.95,1.5,226.25l76.38-44.1v-189
			l-102.11-58.95L1691.93,262.17z"/>
		<path class="st5" d="M1569.95,399.03c0-18.19,9.96-34.14,24.65-42.65l1.61-72.51c0.12-0.57,0.26-1.16,0.42-1.76
			c0.36-1.4,0.8-2.86,1.29-4.33c0.76-2.32,1.65-4.68,2.55-6.93c0.25-0.61,0.49-1.22,0.74-1.81c0.16-0.38,0.32-0.76,0.47-1.13
			c0.23-0.53,0.45-1.05,0.67-1.55c0.17-0.39,0.34-0.78,0.51-1.15c0.28-0.64,0.56-1.24,0.82-1.82c1.45-3.18,2.52-5.29,2.52-5.29
			l13.86-144.52c-4.28-3.31-5.85-6.59-6-9.53c-0.03-0.65,0-1.29,0.1-1.9c0.09-0.62,0.24-1.21,0.43-1.78
			c0.19-0.57,0.43-1.12,0.69-1.64c0.13-0.26,0.27-0.51,0.41-0.76c0.24-0.41,0.49-0.79,0.75-1.16c-0.37-0.18-0.73-0.3-1.1-0.35
			c-0.67,0.09-1.33,0.4-1.98,0.95c-1.46,1.23-2.91,1.73-4.36,1.6c-1.46,0.13-2.92-0.4-4.36-1.56c-0.74-0.6-1.48-0.92-2.2-1.02
			c-0.84,0.09-1.67,0.48-2.47,1.11c-1.26,1-2.49,1.36-3.64,1.24c-1.21,0.12-2.35-0.3-3.4-1.07c-0.06,0.15-0.12,0.3-0.18,0.45
			c0,0,0,0,0.01,0c-0.56,1.49-1.05,3.14-1.33,4.82c-0.01,0.04-0.01,0.08-0.02,0.11c-0.05,0.3-0.09,0.61-0.12,0.91
			c0,0.05-0.01,0.1-0.01,0.14c-0.06,0.64-0.08,1.28-0.05,1.91c0.28,6.24,3.4,7.65,3.4,7.65l-19.84,152.22
			c0,0-21.83,28.91-22.11,49.04c-0.12,8.55-0.45,56.63-0.78,109.1h18.07V399.03z"/>
		<path class="st5" d="M1615.32,96.45c0.36,0.05,0.73,0.17,1.1,0.35c0.06-0.09,0.12-0.17,0.18-0.26
			C1616.18,96.42,1615.75,96.39,1615.32,96.45z"/>
		<path class="st5" d="M1593.11,97.19c-0.07,0.17-0.14,0.34-0.2,0.52c1.05,0.78,2.19,1.19,3.4,1.07
			C1595.17,98.66,1594.09,98.08,1593.11,97.19C1593.11,97.19,1593.11,97.19,1593.11,97.19z"/>
		<path class="st5" d="M1602.42,96.43c0.72,0.09,1.46,0.41,2.2,1.02c1.44,1.17,2.9,1.69,4.36,1.56c-1.18-0.1-2.36-0.62-3.53-1.56
			C1604.42,96.61,1603.41,96.32,1602.42,96.43z"/>
		<path class="st5" d="M1691.37,584.98c-0.83,0.34-1.68,0.66-2.53,0.98c-0.86,0.31-1.72,0.62-2.6,0.91
			c-1.75,0.59-3.55,1.13-5.37,1.64c-1.34,0.37-2.69,0.72-4.06,1.05c-1.12,0.27-2.25,0.53-3.39,0.78c-3.79,0.81-7.66,1.48-11.54,2.03
			c-1.15,0.16-2.3,0.31-3.45,0.45c-2.3,0.28-4.6,0.52-6.88,0.72c-1.14,0.1-2.28,0.19-3.41,0.27c-2.26,0.16-4.5,0.29-6.7,0.39
			c-1.1,0.05-2.19,0.09-3.27,0.12c-1.33,0.04-2.64,0.07-3.93,0.09c-1.29,0.02-2.56,0.03-3.81,0.03c-1.25,0-2.47-0.01-3.66-0.03
			c-0.02,0-0.03,0-0.05,0c-1.57-0.02-3.1-0.06-4.57-0.11c-0.03,0-0.07,0-0.1,0c-1.86-0.06-3.64-0.15-5.31-0.25
			c-1.88-0.11-3.63-0.24-5.23-0.38c-0.67-0.06-1.3-0.12-1.91-0.19c-0.92-0.1-1.77-0.2-2.55-0.3c-0.39-0.05-0.77-0.1-1.12-0.16
			c-0.36-0.05-0.7-0.1-1.02-0.16c-0.69-0.11-1.35-0.25-1.98-0.42c-0.63-0.16-1.23-0.35-1.8-0.56c-1.14-0.41-2.17-0.91-3.09-1.47
			c-0.62-0.37-1.19-0.77-1.71-1.19c-0.38-0.3-0.74-0.61-1.07-0.93c-0.02-0.02-0.05-0.04-0.07-0.06c-0.01-0.01-0.02-0.02-0.02-0.03
			c-0.45-0.43-0.85-0.89-1.23-1.35c-0.08-0.1-0.16-0.2-0.24-0.31c-0.23-0.29-0.44-0.59-0.64-0.89c-0.28-0.42-0.55-0.84-0.78-1.27
			c-0.15-0.27-0.29-0.53-0.42-0.8c-0.26-0.53-0.49-1.06-0.69-1.58c-0.1-0.26-0.19-0.52-0.28-0.78c-0.17-0.51-0.32-1.01-0.44-1.49
			c-0.18-0.69-0.3-1.33-0.4-1.92c-0.04-0.24-0.07-0.47-0.1-0.68c-0.02-0.19-0.05-0.37-0.06-0.54c-0.04-0.34-0.06-0.65-0.08-0.91
			c-0.04-0.65-0.03-1.04-0.03-1.04l0.12-5.56l0.65-29.5c-12.44-8.94-20.59-23.57-20.59-40.03v-26.45h-18.38
			c-0.18,28.44-0.34,54.9-0.45,73.6c-0.08,13.04-0.13,22.29-0.15,25.79c-0.01,1.01-0.01,1.54-0.01,1.54s0.85,30.61,47.05,33.17
			h13.07h14.42h6.28h14.42h13.08c0.9-0.05,1.78-0.11,2.65-0.18c0.21-0.02,0.41-0.04,0.62-0.05c0.7-0.06,1.39-0.13,2.07-0.21
			c0.17-0.02,0.34-0.04,0.5-0.05c0.84-0.1,1.66-0.2,2.46-0.32c0.06-0.01,0.11-0.02,0.17-0.03c0.74-0.11,1.46-0.23,2.17-0.35
			c0.17-0.03,0.33-0.06,0.49-0.09c0.69-0.13,1.36-0.26,2.02-0.4c0.07-0.01,0.14-0.03,0.21-0.04c0.75-0.16,1.48-0.33,2.2-0.51
			c0.08-0.02,0.16-0.04,0.24-0.06c0.63-0.16,1.24-0.32,1.84-0.49c0.12-0.03,0.23-0.07,0.35-0.1c1.35-0.39,2.65-0.81,3.88-1.26
			c0.07-0.03,0.14-0.05,0.21-0.08c0.56-0.21,1.12-0.42,1.65-0.64c0.06-0.02,0.12-0.05,0.17-0.07c1.19-0.49,2.32-1.01,3.38-1.55
			c0.05-0.02,0.09-0.05,0.14-0.07c1.62-0.83,3.11-1.7,4.48-2.62c0.01-0.01,0.02-0.01,0.03-0.02c0.48-0.32,0.94-0.65,1.39-0.98
			c0.13-0.1,0.26-0.2,0.38-0.29c0.31-0.23,0.62-0.47,0.92-0.71c0.14-0.12,0.28-0.23,0.42-0.35c0.27-0.22,0.54-0.45,0.8-0.67
			c0.14-0.12,0.27-0.24,0.41-0.37c0.25-0.22,0.49-0.45,0.73-0.67c0.13-0.12,0.25-0.25,0.38-0.37c0.23-0.23,0.46-0.45,0.68-0.68
			c0.12-0.12,0.23-0.24,0.34-0.36c0.22-0.24,0.44-0.47,0.65-0.71c0.1-0.11,0.2-0.23,0.3-0.34c0.21-0.25,0.42-0.5,0.63-0.74
			c0.08-0.1,0.17-0.2,0.25-0.31c0.21-0.26,0.41-0.52,0.61-0.79c0.06-0.09,0.13-0.17,0.19-0.26c0.21-0.28,0.41-0.57,0.61-0.85
			c0.04-0.06,0.09-0.13,0.13-0.19c0.21-0.32,0.42-0.63,0.62-0.94c0.02-0.03,0.04-0.06,0.06-0.09c0.31-0.5,0.6-0.99,0.87-1.48
			c0.08-0.14,0.15-0.28,0.22-0.42c0.19-0.35,0.37-0.7,0.54-1.04c0.07-0.15,0.14-0.29,0.21-0.44c0.16-0.34,0.32-0.68,0.46-1.02
			c0.05-0.12,0.1-0.24,0.15-0.36c0.17-0.4,0.32-0.79,0.47-1.18c0.01-0.04,0.03-0.08,0.04-0.11c0.15-0.41,0.29-0.81,0.41-1.2
			c0.01-0.04,0.03-0.08,0.04-0.12c0.09-0.29,0.18-0.58,0.26-0.85c0-0.02,0.01-0.03,0.01-0.05c0.24-0.84,0.41-1.6,0.54-2.26
			c0-0.02,0.01-0.03,0.01-0.05C1701.83,580.07,1696.86,582.77,1691.37,584.98z"/>
		<path class="st4" d="M1660.13,98.78c-1.15,0.11-2.37-0.24-3.62-1.24c-0.8-0.63-1.62-1.02-2.47-1.11c-0.72,0.09-1.46,0.41-2.2,1.02
			c-1.44,1.17-2.9,1.69-4.36,1.56c-1.45,0.13-2.91-0.37-4.36-1.6c-0.65-0.55-1.31-0.86-1.98-0.95c-0.68,0.09-1.36,0.4-2.05,0.95
			c-1.5,1.2-3.02,1.82-4.56,1.68c-1.37,0.12-2.76-0.34-4.18-1.51c-0.7-0.58-1.41-0.84-2.12-0.89c-0.71,0.05-1.43,0.31-2.12,0.89
			c-1.42,1.18-2.81,1.63-4.18,1.51c-1.54,0.14-3.06-0.48-4.56-1.68c-0.32-0.25-0.63-0.44-0.95-0.6c-0.26,0.37-0.51,0.75-0.75,1.16
			c-0.14,0.25-0.28,0.5-0.41,0.76c-0.26,0.52-0.5,1.07-0.69,1.64c-0.19,0.57-0.34,1.17-0.43,1.78s-0.13,1.25-0.1,1.9
			c0.15,2.94,1.72,6.22,6,9.53l-13.86,144.52c0,0-1.07,2.11-2.52,5.29c-0.26,0.57-0.54,1.18-0.82,1.82
			c-0.17,0.38-0.34,0.76-0.51,1.15c-0.22,0.51-0.44,1.02-0.67,1.55c-0.16,0.37-0.32,0.75-0.47,1.13c-0.25,0.59-0.5,1.2-0.74,1.81
			c-0.9,2.25-1.79,4.61-2.55,6.93c-0.49,1.48-0.93,2.94-1.29,4.33c-0.15,0.6-0.29,1.19-0.42,1.76l-1.61,72.51
			c7.16-4.15,15.44-6.53,24.25-6.53h20.73c26.9,0,48.91,22.13,48.91,49.19v25.04h16.92c-0.33-52.46-0.66-100.54-0.78-109.1
			c-0.28-20.13-22.11-49.04-22.11-49.04l-19.84-152.22c0,0,3.12-1.42,3.4-7.65c0.04-0.78,0-1.57-0.1-2.36c0-0.01,0-0.02,0-0.03
			c-0.05-0.38-0.11-0.77-0.18-1.15c0-0.02-0.01-0.03-0.01-0.05c-0.07-0.35-0.14-0.7-0.23-1.04c-0.04-0.15-0.07-0.29-0.11-0.44
			c-0.05-0.18-0.1-0.37-0.15-0.55c-0.06-0.21-0.12-0.41-0.19-0.62c-0.03-0.1-0.06-0.2-0.09-0.3c-0.08-0.25-0.16-0.5-0.25-0.74
			c-0.01-0.04-0.03-0.08-0.04-0.11c-0.18-0.51-0.37-1-0.56-1.47C1662.95,98.3,1661.59,98.93,1660.13,98.78z"/>
		<path class="st4" d="M1597.91,277.78c0.76-2.32,1.65-4.68,2.55-6.93C1599.56,273.09,1598.67,275.46,1597.91,277.78z"/>
		<path class="st4" d="M1621.93,99.08c-1.26-0.11-2.49-0.7-3.72-1.68c-0.54-0.43-1.07-0.7-1.6-0.85c-0.06,0.08-0.12,0.17-0.18,0.26
			c0.32,0.16,0.63,0.35,0.95,0.6C1618.87,98.6,1620.39,99.22,1621.93,99.08z"/>
		<path class="st4" d="M1654.04,96.43c0.84,0.09,1.67,0.48,2.47,1.11c1.26,1,2.47,1.35,3.62,1.24c-0.9-0.09-1.83-0.48-2.79-1.24
			C1656.28,96.7,1655.18,96.28,1654.04,96.43z"/>
		<path class="st4" d="M1641.13,96.45c0.67,0.09,1.33,0.4,1.98,0.95c1.46,1.23,2.91,1.73,4.36,1.6c-1.17-0.1-2.35-0.61-3.53-1.6
			C1643.02,96.62,1642.09,96.32,1641.13,96.45z"/>
		<path class="st4" d="M1628.65,96.66c-0.14-0.01-0.28,0.01-0.42,0.02c0.71,0.05,1.43,0.31,2.12,0.89c1.42,1.18,2.81,1.63,4.18,1.51
			c-1.1-0.1-2.21-0.57-3.34-1.51C1630.35,96.88,1629.5,96.62,1628.65,96.66z"/>
		<path class="st4" d="M1628.63,576.85l0.01-0.05l-0.01,0C1628.64,576.82,1628.64,576.84,1628.63,576.85z"/>
		<path class="st4" d="M1676.8,589.56c1.37-0.33,2.73-0.68,4.06-1.05c1.83-0.51,3.62-1.05,5.37-1.64c0.88-0.29,1.74-0.6,2.6-0.91
			c0.86-0.31,1.7-0.64,2.53-0.98c5.49-2.22,10.46-4.91,14.59-8.18c0,0,0,0,0,0l0,0c0.33-1.69,0.37-2.74,0.37-2.74s0-0.53-0.01-1.55
			l-0.6-99.38h-17.23v26.45c0,27.05-22.01,49.19-48.91,49.19h-20.73c-10.53,0-20.31-3.41-28.31-9.16l-0.65,29.5l-0.12,5.56
			c0,0-0.01,0.38,0.03,1.03c0.3,4.98,2.43,10.31,6.39,13.49c3.93,3.15,9.21,3.92,14.23,4.38c14.6,1.35,29.36,1.19,43.95-0.32
			c6.15-0.64,12.25-1.41,18.3-2.7"/>
		<path class="st1" d="M1629.2,77.66c3.33,0,6.67-0.05,10-0.07c-3.61,0.02-7.22,0.07-10.83,0.07c0.09,0,0.19,0,0.28,0
			C1628.83,77.66,1629.02,77.66,1629.2,77.66z"/>
		<path class="st1" d="M1589.95,95.16c-0.11-0.29-0.14-0.66-0.03-1.16c2.23-10.31,5.63-15.8,18.05-16.29
			c3.09-0.12,6.19-0.14,9.29-0.12c-3.38-0.02-6.75-0.01-10.12,0.12c-12.42,0.49-15.81,5.98-18.05,16.29
			c-0.24,1.11,0.17,1.61,0.77,1.92c0-0.18,0.01-0.38,0.06-0.61C1589.92,95.25,1589.94,95.21,1589.95,95.16z"/>
		<path class="st1" d="M1809.13,291.81l-122.57-70.76l-13.59-104.23c1.58-2.62,2.71-6.04,2.9-10.32c0.07-1.5-0.02-3.07-0.26-4.7
			c1.69-2.74,1.92-5.93,1.34-8.57c-2.48-11.44-7.66-23.24-27.25-24.01c-4.86-0.19-9.69-0.14-14.35-0.1
			c-2.05,0.02-4.11,0.04-6.17,0.04h-1.1c-2.05,0-4.11-0.02-6.16-0.04c-4.68-0.05-9.5-0.09-14.35,0.1
			c-19.59,0.77-24.77,12.57-27.25,24.02c-0.57,2.63-0.34,5.8,1.35,8.54c-0.24,1.64-0.33,3.22-0.26,4.73
			c0.19,4.28,1.32,7.7,2.9,10.32l-13.59,104.22l-122.58,70.77c-3.47,2-5.6,5.7-5.6,9.7v201.94c0,4,2.14,7.7,5.6,9.7l93.04,53.72
			c-0.03,4.37-0.04,6.89-0.04,7.13l0,0.33c0.38,13.71,12.64,40.27,56.32,42.68l62.08,0.02l0.27-0.02
			c43.68-2.41,55.93-28.97,56.31-42.68l0-0.33c0-0.24-0.02-2.76-0.04-7.13l93.03-53.71c3.47-2,5.6-5.7,5.6-9.7V301.51
			C1814.73,297.51,1812.6,293.81,1809.13,291.81z M1574.76,265.93l3.01-23.08l3.65-27.98l13.19-101.16c0,0-3.12-1.42-3.4-7.65
			c-0.03-0.63,0-1.27,0.06-1.91c0-0.05,0.01-0.1,0.01-0.14c0.03-0.3,0.07-0.61,0.12-0.91c0.01-0.04,0.01-0.08,0.02-0.11
			c0.27-1.68,0.76-3.33,1.32-4.82c-0.91-0.78-2.86-0.6-2.88-2.24c-0.6-0.32-1.01-0.81-0.77-1.92c2.23-10.31,5.63-15.8,18.05-16.29
			c3.37-0.13,6.74-0.14,10.12-0.12c3.61,0.02,7.23,0.07,10.85,0.07c0.09,0,0.18,0,0.27,0c3.61,0,7.22-0.06,10.83-0.07
			c3.38-0.02,6.76-0.01,10.13,0.12c12.42,0.49,15.81,5.98,18.05,16.29c0.11,0.5,0.08,0.87-0.03,1.16c0.01,0.05,0.02,0.1,0.03,0.15
			c0.5,2.32-1.82,1.99-2.82,2.86c0.06,0.16,0.12,0.33,0.18,0.5c0.01,0.04,0.03,0.08,0.04,0.11c0.09,0.24,0.17,0.49,0.25,0.74
			c0.03,0.1,0.06,0.2,0.09,0.3c0.06,0.21,0.13,0.41,0.19,0.62c0.05,0.18,0.1,0.37,0.15,0.55c0.04,0.15,0.08,0.29,0.11,0.44
			c0.08,0.34,0.16,0.69,0.23,1.04c0,0.02,0.01,0.03,0.01,0.05c0.07,0.38,0.13,0.77,0.18,1.15c0,0.01,0,0.02,0,0.03
			c0.1,0.79,0.14,1.59,0.11,2.36c-0.28,6.24-3.4,7.65-3.4,7.65l13.19,101.16l3.65,27.98v0l3.01,23.08c0,0,21.83,28.91,22.11,49.04
			c0.12,8.55,0.45,56.63,0.78,109.1h-0.01h-16.92v-25.04c0-27.05-22.01-49.19-48.91-49.19h-20.73c-8.81,0-17.09,2.39-24.25,6.53
			c-14.7,8.51-24.65,24.46-24.65,42.65v25.04h-18.07h-0.01c0.33-52.46,0.66-100.54,0.78-109.1
			C1552.93,294.85,1574.76,265.93,1574.76,265.93z M1541.35,541.09l-76.39-44.1v-189l102.13-58.96l-1.71,13.15
			c-5.58,7.78-22.24,32.65-22.52,52.67C1542.64,330.22,1541.75,474.8,1541.35,541.09z M1705.41,579.11c0,0.02-0.01,0.03-0.01,0.05
			c-0.08,0.28-0.16,0.56-0.26,0.85c-0.01,0.04-0.03,0.08-0.04,0.12c-0.13,0.39-0.26,0.78-0.41,1.2c0,0.01-0.01,0.02-0.01,0.03
			c-0.01,0.03-0.02,0.06-0.03,0.09c-0.14,0.38-0.3,0.78-0.47,1.18c-0.05,0.12-0.1,0.24-0.15,0.36c-0.14,0.33-0.3,0.67-0.46,1.02
			c-0.07,0.15-0.14,0.29-0.21,0.44c-0.17,0.34-0.35,0.69-0.54,1.04c-0.07,0.14-0.14,0.28-0.22,0.42c-0.27,0.49-0.56,0.98-0.87,1.48
			c-0.02,0.03-0.04,0.06-0.06,0.09c-0.2,0.31-0.4,0.63-0.62,0.94c-0.04,0.06-0.09,0.12-0.13,0.19c-0.2,0.28-0.4,0.57-0.61,0.85
			c-0.06,0.09-0.13,0.17-0.19,0.26c-0.2,0.26-0.4,0.52-0.61,0.79c-0.08,0.1-0.16,0.2-0.25,0.31c-0.2,0.25-0.41,0.5-0.63,0.74
			c-0.1,0.11-0.2,0.23-0.3,0.34c-0.21,0.24-0.43,0.47-0.65,0.71c-0.11,0.12-0.23,0.24-0.34,0.36c-0.22,0.23-0.45,0.46-0.68,0.68
			c-0.13,0.12-0.25,0.25-0.38,0.37c-0.24,0.23-0.48,0.45-0.73,0.67c-0.14,0.12-0.27,0.25-0.41,0.37c-0.26,0.23-0.53,0.45-0.8,0.67
			c-0.14,0.12-0.28,0.23-0.42,0.35c-0.3,0.24-0.61,0.47-0.92,0.71c-0.13,0.1-0.25,0.2-0.38,0.29c-0.45,0.33-0.91,0.65-1.39,0.98
			c-0.01,0.01-0.02,0.01-0.03,0.02c-1.37,0.91-2.86,1.79-4.48,2.62c-0.05,0.02-0.09,0.05-0.14,0.07c-1.07,0.54-2.2,1.06-3.38,1.55
			c-0.06,0.02-0.12,0.05-0.17,0.07c-0.54,0.22-1.09,0.44-1.65,0.64c-0.07,0.03-0.14,0.05-0.21,0.08c-1.23,0.45-2.52,0.87-3.88,1.26
			c-0.11,0.03-0.23,0.07-0.35,0.1c-0.6,0.17-1.22,0.34-1.84,0.49c-0.08,0.02-0.16,0.04-0.24,0.06c-0.72,0.18-1.45,0.35-2.2,0.51
			c-0.07,0.01-0.14,0.03-0.21,0.04c-0.66,0.14-1.34,0.27-2.02,0.4c-0.16,0.03-0.33,0.06-0.49,0.09c-0.71,0.12-1.43,0.24-2.17,0.35
			c-0.06,0.01-0.11,0.02-0.17,0.03c-0.8,0.12-1.63,0.22-2.46,0.32c-0.17,0.02-0.34,0.04-0.5,0.05c-0.68,0.08-1.37,0.14-2.07,0.21
			c-0.21,0.02-0.41,0.04-0.62,0.05c-0.87,0.07-1.74,0.13-2.64,0.18h-13.08h-14.41h-3.14h-3.14h-14.43h-13.07c0,0,0,0,0,0H1598
			c-46.21-2.55-47.06-33.17-47.06-33.17s0-0.53,0.01-1.55c0.02-3.5,0.08-12.75,0.15-25.79c0.11-18.69,0.27-45.16,0.45-73.59h0.01
			h18.38v26.45c0,16.46,8.15,31.08,20.59,40.03c8.01,5.76,17.78,9.16,28.31,9.16h20.73c26.9,0,48.91-22.13,48.91-49.19v-26.45h17.23
			h0.01c0.18,28.43,0.34,54.9,0.45,73.59v0c0.08,13.04,0.13,22.29,0.15,25.79c0.01,1.01,0.01,1.55,0.01,1.55
			S1706.27,576.08,1705.41,579.11z M1792.32,496.99l-76.38,44.1c-0.4-66.3-1.29-210.86-1.5-226.25v0
			c-0.28-20.02-16.94-44.89-22.52-52.67l-1.71-13.14l102.11,58.95V496.99z"/>
		<path class="st0" d="M1625.27,97.57c-1.13,0.94-2.24,1.42-3.34,1.51c1.37,0.12,2.76-0.34,4.18-1.51c0.7-0.58,1.41-0.84,2.12-0.89
			c-0.14-0.01-0.28-0.02-0.42-0.02C1626.96,96.62,1626.11,96.88,1625.27,97.57z"/>
		<path class="st0" d="M1599.12,97.54c-0.96,0.76-1.9,1.15-2.81,1.24c1.16,0.12,2.38-0.24,3.64-1.24c0.8-0.63,1.62-1.02,2.47-1.11
			C1601.28,96.28,1600.18,96.7,1599.12,97.54z"/>
		<path class="st0" d="M1660.13,98.78c1.46,0.15,2.82-0.48,4.04-1.58c-0.07-0.18-0.14-0.35-0.22-0.52
			c-0.11,0.07-0.22,0.14-0.31,0.23C1662.58,97.96,1661.39,98.65,1660.13,98.78z"/>
		<path class="st0" d="M1651.01,97.44c-1.17,0.95-2.35,1.46-3.53,1.56c1.46,0.13,2.92-0.4,4.36-1.56c0.74-0.6,1.48-0.92,2.2-1.02
			C1653.06,96.32,1652.04,96.61,1651.01,97.44z"/>
		<path class="st0" d="M1612.51,97.4c-1.18,0.99-2.36,1.5-3.53,1.6c1.45,0.13,2.91-0.37,4.36-1.6c0.65-0.55,1.31-0.86,1.98-0.95
			C1614.37,96.32,1613.44,96.63,1612.51,97.4z"/>
		<path class="st0" d="M1638.26,97.4c-1.23,0.98-2.47,1.57-3.72,1.68c1.54,0.14,3.06-0.48,4.56-1.68c0.69-0.55,1.37-0.86,2.05-0.95
			C1640.19,96.32,1639.22,96.63,1638.26,97.4z"/>
		<path class="st0" d="M1666.55,94c0.47,2.15-1.5,2.02-2.59,2.68c0.07,0.17,0.14,0.34,0.22,0.52c0.1-0.09,0.2-0.19,0.3-0.28
			c0.76-0.75,2.45-0.66,2.87-1.75c-0.91-4.16-2.03-7.51-3.85-10.07C1664.86,87.48,1665.78,90.45,1666.55,94z"/>
		<path class="st0" d="M1627.81,77.66c0.09,0,0.19,0,0.28,0c-3.61,0-7.23-0.06-10.85-0.07c3.34,0.02,6.68,0.07,10.01,0.07
			C1627.45,77.66,1627.63,77.66,1627.81,77.66z"/>
		<path class="st0" d="M1667.38,94c-2.23-10.31-5.63-15.8-18.05-16.29c-3.37-0.13-6.75-0.14-10.13-0.12
			c-3.33,0.02-6.67,0.07-10,0.07c-0.18,0-0.37,0-0.55,0c-0.09,0-0.19,0-0.28,0c-0.09,0-0.18,0-0.27,0c-0.09,0-0.19,0-0.28,0
			c-0.18,0-0.37,0-0.55,0c-3.34,0-6.68-0.05-10.01-0.07c-3.1-0.01-6.19,0-9.29,0.12c-12.42,0.49-15.81,5.98-18.05,16.29
			c-0.11,0.5-0.08,0.87,0.03,1.16c0.43,1.09,2.11,1,2.87,1.75c0.1,0.1,0.2,0.19,0.29,0.28c0.98,0.89,2.06,1.48,3.2,1.59
			c0.9-0.09,1.84-0.48,2.81-1.24c1.06-0.84,2.16-1.26,3.3-1.11c0.99-0.11,2,0.18,3.03,1.02c1.17,0.95,2.35,1.46,3.53,1.56
			c1.17-0.1,2.35-0.61,3.53-1.6c0.92-0.78,1.86-1.08,2.81-0.95c0.42-0.06,0.85-0.03,1.28,0.1c0.53,0.15,1.06,0.43,1.6,0.85
			c1.23,0.98,2.47,1.57,3.72,1.68c1.1-0.1,2.21-0.57,3.34-1.51c0.83-0.69,1.69-0.95,2.54-0.91c0.14-0.01,0.28,0.01,0.42,0.02
			c0.14-0.01,0.28-0.02,0.42-0.02c0.85-0.04,1.71,0.21,2.54,0.91c1.13,0.94,2.24,1.42,3.34,1.51c1.26-0.11,2.49-0.7,3.72-1.68
			c0.97-0.77,1.93-1.08,2.88-0.95c0.95-0.13,1.89,0.17,2.81,0.95c1.18,0.99,2.36,1.5,3.53,1.6c1.18-0.1,2.36-0.62,3.53-1.56
			c1.03-0.83,2.05-1.13,3.03-1.02c1.14-0.15,2.24,0.27,3.3,1.11c0.96,0.76,1.89,1.15,2.79,1.24c1.27-0.12,2.45-0.81,3.51-1.87
			c0.09-0.09,0.2-0.17,0.31-0.23c1.09-0.66,3.06-0.53,2.59-2.68c-0.77-3.55-1.69-6.51-3.05-8.91c1.82,2.56,2.94,5.92,3.85,10.07
			C1667.46,94.87,1667.49,94.49,1667.38,94z"/>
	</g>
</g>
<g>
	<path class="st2" d="M399.11,658.49h-6.28h-27.49c0,0,0,0,0,0h27.5h3.14L399.11,658.49l27.5,0c0.9-0.05,1.78-0.11,2.64-0.18
		c-0.87,0.07-1.75,0.13-2.65,0.18H399.11z"/>
	<g>
		<path class="st3" d="M360.27,150.65c-0.06,0.15-0.12,0.3-0.18,0.45C360.15,150.94,360.21,150.8,360.27,150.65
			C360.27,150.65,360.27,150.65,360.27,150.65z"/>
		<path class="st3" d="M360.09,151.1c-0.56,1.49-1.05,3.15-1.32,4.82C359.04,154.25,359.54,152.59,360.09,151.1
			C360.1,151.1,360.09,151.1,360.09,151.1z"/>
		<path class="st3" d="M430.04,166.66l19.84,152.22c0,0,21.83,28.91,22.11,49.04c0.12,8.55,0.45,56.63,0.78,109.1h0.01
			c-0.33-52.46-0.66-100.54-0.78-109.1c-0.28-20.13-22.11-49.04-22.11-49.04l-3.01-23.08v0l-3.65-27.98L430.04,166.66
			c0.01,0,3.13-1.42,3.41-7.65c0.04-0.78-0.01-1.57-0.11-2.36c0.1,0.79,0.14,1.59,0.1,2.36
			C433.16,165.24,430.04,166.66,430.04,166.66z"/>
		<path class="st3" d="M363.98,335.05c-0.15,0.6-0.29,1.19-0.42,1.76l-1.61,72.51l1.61-72.51
			C363.69,336.24,363.83,335.65,363.98,335.05z"/>
		<path class="st3" d="M387.41,166.52c-4.28-3.31-5.85-6.59-6-9.53C381.55,159.92,383.13,163.2,387.41,166.52l-13.86,144.52
			c0,0-1.07,2.11-2.52,5.29c1.45-3.18,2.52-5.29,2.52-5.29L387.41,166.52z"/>
		<path class="st3" d="M381.5,155.08c0.09-0.62,0.24-1.21,0.43-1.78C381.75,153.87,381.6,154.47,381.5,155.08z"/>
		<path class="st3" d="M342.13,318.88l19.84-152.22c0,0-3.12-1.42-3.4-7.65c-0.03-0.63-0.01-1.27,0.05-1.91
			c-0.06,0.64-0.09,1.28-0.06,1.91c0.28,6.24,3.4,7.65,3.4,7.65l-13.19,101.16l-3.65,27.98L342.13,318.88
			c-0.01,0-21.83,28.91-22.12,49.04c-0.12,8.55-0.45,56.63-0.78,109.1h0.01c0.33-52.46,0.66-100.54,0.78-109.1
			C320.3,347.79,342.13,318.88,342.13,318.88z"/>
		<path class="st0" d="M360.27,150.65C360.27,150.65,360.27,150.65,360.27,150.65c0.07-0.17,0.14-0.35,0.21-0.51
			C360.4,150.3,360.34,150.47,360.27,150.65z"/>
		<path class="st2" d="M431.84,149.85c-0.1,0.1-0.2,0.19-0.3,0.28c0.19,0.47,0.38,0.96,0.56,1.47c-0.06-0.17-0.12-0.34-0.18-0.5
			c1-0.87,3.33-0.54,2.82-2.86c-0.01-0.05-0.02-0.1-0.03-0.15C434.28,149.2,432.59,149.1,431.84,149.85z"/>
		<path class="st2" d="M359.35,149.85c-0.51-0.51-1.45-0.63-2.14-0.99c0.02,1.64,1.98,1.46,2.88,2.24c0.06-0.15,0.12-0.3,0.18-0.45
			C359.95,150.41,359.64,150.15,359.35,149.85z"/>
		<path class="st2" d="M360.27,150.65c0.07-0.17,0.14-0.34,0.21-0.51c0,0,0,0,0,0c-0.1-0.09-0.2-0.18-0.29-0.28
			c-0.76-0.75-2.45-0.66-2.87-1.75c-0.01,0.05-0.02,0.1-0.03,0.15c-0.05,0.23-0.07,0.43-0.06,0.61c0.69,0.36,1.62,0.48,2.14,0.99
			C359.64,150.15,359.95,150.41,360.27,150.65z"/>
		<path class="st3" d="M318.93,526.08L318.93,526.08c-0.18,28.43-0.34,54.9-0.46,73.59l0.01,0
			C318.59,580.98,318.75,554.52,318.93,526.08z"/>
		<path class="st3" d="M318.48,599.68L318.48,599.68c-0.09,13.03-0.14,22.29-0.16,25.78l0.01,0
			C318.35,621.97,318.4,612.71,318.48,599.68z"/>
		<polygon class="st2" points="399.14,660.17 392.86,660.17 378.44,660.17 378.44,660.17 392.87,660.17 396.01,660.17 
			399.15,660.17 413.56,660.17 413.56,660.17 		"/>
		<path class="st5" d="M373.28,645.98c-0.36-0.05-0.7-0.11-1.02-0.16c-0.69-0.11-1.35-0.25-1.98-0.42c0.63,0.16,1.29,0.3,1.98,0.42
			C372.58,645.87,372.92,645.92,373.28,645.98z"/>
		<path class="st5" d="M361.28,639.81c0.37,0.46,0.78,0.91,1.23,1.35C362.06,640.72,361.66,640.27,361.28,639.81z"/>
		<path class="st2" d="M413.56,660.17L413.56,660.17l13.08,0c0.9-0.05,1.78-0.11,2.64-0.18c-0.87,0.07-1.75,0.13-2.65,0.18H413.56z"
			/>
		<path class="st3" d="M318.32,627.01c0,0,0-0.53,0.01-1.54l-0.01,0C318.31,626.47,318.31,627.01,318.32,627.01
			c-0.01,0,0.84,30.61,47.05,33.17h0.01C319.17,657.62,318.32,627.01,318.32,627.01z"/>
		<polygon class="st2" points="365.37,660.17 365.37,660.17 378.44,660.17 378.44,660.17 		"/>
		<path class="st0" d="M334.44,301.96l-102.13,58.96v189l76.39,44.1c0.4-66.29,1.29-210.87,1.5-226.26
			c0.28-20.02,16.94-44.89,22.52-52.67L334.44,301.96z"/>
		<path class="st0" d="M459.29,315.11c5.58,7.78,22.23,32.65,22.52,52.67v0c0.22,15.38,1.1,159.95,1.5,226.25l76.38-44.1v-189
			l-102.11-58.95L459.29,315.11z"/>
		<path class="st5" d="M337.31,451.97c0-18.19,9.96-34.14,24.65-42.65l1.61-72.51c0.12-0.57,0.26-1.16,0.42-1.76
			c0.36-1.4,0.8-2.86,1.29-4.33c0.76-2.32,1.65-4.68,2.55-6.93c0.25-0.61,0.49-1.22,0.74-1.81c0.16-0.38,0.32-0.76,0.47-1.13
			c0.23-0.53,0.45-1.05,0.67-1.55c0.17-0.39,0.34-0.78,0.51-1.15c0.28-0.64,0.56-1.24,0.82-1.82c1.45-3.18,2.52-5.29,2.52-5.29
			l13.86-144.52c-4.28-3.31-5.85-6.59-6-9.53c-0.03-0.65,0-1.29,0.1-1.9c0.09-0.62,0.24-1.21,0.43-1.78
			c0.19-0.57,0.43-1.12,0.69-1.64c0.13-0.26,0.27-0.51,0.41-0.76c0.24-0.41,0.49-0.79,0.75-1.16c-0.37-0.18-0.73-0.3-1.1-0.35
			c-0.67,0.09-1.33,0.4-1.98,0.95c-1.46,1.23-2.91,1.73-4.36,1.6c-1.46,0.13-2.92-0.4-4.36-1.56c-0.74-0.6-1.48-0.92-2.2-1.02
			c-0.84,0.09-1.67,0.48-2.47,1.11c-1.26,1-2.49,1.36-3.64,1.24c-1.21,0.12-2.35-0.3-3.4-1.07c-0.06,0.15-0.12,0.3-0.18,0.45
			c0,0,0,0,0.01,0c-0.56,1.49-1.05,3.14-1.33,4.82c-0.01,0.04-0.01,0.08-0.02,0.11c-0.05,0.3-0.09,0.61-0.12,0.91
			c0,0.05-0.01,0.1-0.01,0.14c-0.06,0.64-0.08,1.28-0.05,1.91c0.28,6.24,3.4,7.65,3.4,7.65l-19.84,152.22
			c0,0-21.83,28.91-22.11,49.04c-0.12,8.55-0.45,56.63-0.78,109.1h18.07V451.97z"/>
		<path class="st5" d="M382.68,149.39c0.36,0.05,0.73,0.17,1.1,0.35c0.06-0.09,0.12-0.17,0.18-0.26
			C383.54,149.37,383.11,149.34,382.68,149.39z"/>
		<path class="st5" d="M360.47,150.13c-0.07,0.17-0.14,0.34-0.2,0.52c1.05,0.78,2.19,1.19,3.4,1.07
			C362.53,151.6,361.45,151.02,360.47,150.13C360.47,150.13,360.47,150.13,360.47,150.13z"/>
		<path class="st5" d="M369.78,149.37c0.72,0.09,1.46,0.41,2.2,1.02c1.44,1.17,2.9,1.69,4.36,1.56c-1.18-0.1-2.36-0.62-3.53-1.56
			C371.78,149.55,370.77,149.26,369.78,149.37z"/>
		<path class="st5" d="M458.73,637.93c-0.83,0.34-1.68,0.66-2.53,0.98c-0.86,0.31-1.72,0.62-2.6,0.91
			c-1.75,0.59-3.55,1.13-5.37,1.64c-1.34,0.37-2.69,0.72-4.06,1.05c-1.12,0.27-2.25,0.53-3.39,0.78c-3.79,0.81-7.66,1.48-11.54,2.03
			c-1.15,0.16-2.3,0.31-3.45,0.45c-2.3,0.28-4.6,0.52-6.88,0.72c-1.14,0.1-2.28,0.19-3.41,0.27c-2.26,0.16-4.5,0.29-6.7,0.39
			c-1.1,0.05-2.19,0.09-3.27,0.12c-1.33,0.04-2.64,0.07-3.93,0.09c-1.29,0.02-2.56,0.03-3.81,0.03c-1.25,0-2.47-0.01-3.66-0.03
			c-0.02,0-0.03,0-0.05,0c-1.57-0.02-3.1-0.06-4.57-0.11c-0.03,0-0.07,0-0.1,0c-1.86-0.06-3.64-0.15-5.31-0.25
			c-1.88-0.11-3.63-0.24-5.23-0.38c-0.67-0.06-1.3-0.12-1.91-0.19c-0.92-0.1-1.77-0.2-2.55-0.3c-0.39-0.05-0.77-0.1-1.12-0.16
			c-0.36-0.05-0.7-0.1-1.02-0.16c-0.69-0.11-1.35-0.25-1.98-0.42c-0.63-0.16-1.23-0.35-1.8-0.56c-1.14-0.41-2.17-0.91-3.09-1.47
			c-0.62-0.37-1.19-0.77-1.71-1.19c-0.38-0.3-0.74-0.61-1.07-0.93c-0.02-0.02-0.05-0.04-0.07-0.06c-0.01-0.01-0.02-0.02-0.02-0.03
			c-0.45-0.43-0.85-0.89-1.23-1.35c-0.08-0.1-0.16-0.2-0.24-0.31c-0.23-0.29-0.44-0.59-0.64-0.89c-0.28-0.42-0.55-0.84-0.78-1.27
			c-0.15-0.27-0.29-0.53-0.42-0.8c-0.26-0.53-0.49-1.06-0.69-1.58c-0.1-0.26-0.19-0.52-0.28-0.78c-0.17-0.51-0.32-1.01-0.44-1.49
			c-0.18-0.69-0.3-1.33-0.4-1.92c-0.04-0.24-0.07-0.47-0.1-0.68c-0.02-0.19-0.05-0.37-0.06-0.54c-0.04-0.34-0.06-0.65-0.08-0.91
			c-0.04-0.65-0.03-1.04-0.03-1.04l0.12-5.56l0.65-29.5c-12.44-8.94-20.59-23.57-20.59-40.03v-26.45h-18.38
			c-0.18,28.44-0.34,54.9-0.45,73.6c-0.08,13.04-0.13,22.29-0.15,25.79c-0.01,1.01-0.01,1.54-0.01,1.54s0.85,30.61,47.05,33.17
			h13.07h14.42h6.28h14.42h13.08c0.9-0.05,1.78-0.11,2.65-0.18c0.21-0.02,0.41-0.04,0.62-0.05c0.7-0.06,1.39-0.13,2.07-0.21
			c0.17-0.02,0.34-0.04,0.5-0.05c0.84-0.1,1.66-0.2,2.46-0.32c0.06-0.01,0.11-0.02,0.17-0.03c0.74-0.11,1.46-0.23,2.17-0.35
			c0.17-0.03,0.33-0.06,0.49-0.09c0.69-0.13,1.36-0.26,2.02-0.4c0.07-0.01,0.14-0.03,0.21-0.04c0.75-0.16,1.48-0.33,2.2-0.51
			c0.08-0.02,0.16-0.04,0.24-0.06c0.63-0.16,1.24-0.32,1.84-0.49c0.12-0.03,0.23-0.07,0.35-0.1c1.35-0.39,2.65-0.81,3.88-1.26
			c0.07-0.03,0.14-0.05,0.21-0.08c0.56-0.21,1.12-0.42,1.65-0.64c0.06-0.02,0.12-0.05,0.17-0.07c1.19-0.49,2.32-1.01,3.38-1.55
			c0.05-0.02,0.09-0.05,0.14-0.07c1.62-0.83,3.11-1.7,4.48-2.62c0.01-0.01,0.02-0.01,0.03-0.02c0.48-0.32,0.94-0.65,1.39-0.98
			c0.13-0.1,0.26-0.2,0.38-0.29c0.31-0.23,0.62-0.47,0.92-0.71c0.14-0.12,0.28-0.23,0.42-0.35c0.27-0.22,0.54-0.45,0.8-0.67
			c0.14-0.12,0.27-0.24,0.41-0.37c0.25-0.22,0.49-0.45,0.73-0.67c0.13-0.12,0.25-0.25,0.38-0.37c0.23-0.23,0.46-0.45,0.68-0.68
			c0.12-0.12,0.23-0.24,0.34-0.36c0.22-0.24,0.44-0.47,0.65-0.71c0.1-0.11,0.2-0.23,0.3-0.34c0.21-0.25,0.42-0.5,0.63-0.74
			c0.08-0.1,0.17-0.2,0.25-0.31c0.21-0.26,0.41-0.52,0.61-0.79c0.06-0.09,0.13-0.17,0.19-0.26c0.21-0.28,0.41-0.57,0.61-0.85
			c0.04-0.06,0.09-0.13,0.13-0.19c0.21-0.32,0.42-0.63,0.62-0.94c0.02-0.03,0.04-0.06,0.06-0.09c0.31-0.5,0.6-0.99,0.87-1.48
			c0.08-0.14,0.15-0.28,0.22-0.42c0.19-0.35,0.37-0.7,0.54-1.04c0.07-0.15,0.14-0.29,0.21-0.44c0.16-0.34,0.32-0.68,0.46-1.02
			c0.05-0.12,0.1-0.24,0.15-0.36c0.17-0.4,0.32-0.79,0.47-1.18c0.01-0.04,0.03-0.08,0.04-0.11c0.15-0.41,0.29-0.81,0.41-1.2
			c0.01-0.04,0.03-0.08,0.04-0.12c0.09-0.29,0.18-0.58,0.26-0.85c0-0.02,0.01-0.03,0.01-0.05c0.24-0.84,0.41-1.6,0.54-2.26
			c0-0.02,0.01-0.03,0.01-0.05C469.19,633.01,464.22,635.71,458.73,637.93z"/>
		<path class="st4" d="M427.49,151.72c-1.15,0.11-2.37-0.24-3.62-1.24c-0.8-0.63-1.62-1.02-2.47-1.11c-0.72,0.09-1.46,0.41-2.2,1.02
			c-1.44,1.17-2.9,1.69-4.36,1.56c-1.45,0.13-2.91-0.37-4.36-1.6c-0.65-0.55-1.31-0.86-1.98-0.95c-0.68,0.09-1.36,0.4-2.05,0.95
			c-1.5,1.2-3.02,1.82-4.56,1.68c-1.37,0.12-2.76-0.34-4.18-1.51c-0.7-0.58-1.41-0.84-2.12-0.89c-0.71,0.05-1.43,0.31-2.12,0.89
			c-1.42,1.18-2.81,1.63-4.18,1.51c-1.54,0.14-3.06-0.48-4.56-1.68c-0.32-0.25-0.63-0.44-0.95-0.6c-0.26,0.37-0.51,0.75-0.75,1.16
			c-0.14,0.25-0.28,0.5-0.41,0.76c-0.26,0.52-0.5,1.07-0.69,1.64c-0.19,0.57-0.34,1.17-0.43,1.78s-0.13,1.25-0.1,1.9
			c0.15,2.94,1.72,6.22,6,9.53l-13.86,144.52c0,0-1.07,2.11-2.52,5.29c-0.26,0.57-0.54,1.18-0.82,1.82
			c-0.17,0.38-0.34,0.76-0.51,1.15c-0.22,0.51-0.44,1.02-0.67,1.55c-0.16,0.37-0.32,0.75-0.47,1.13c-0.25,0.59-0.5,1.2-0.74,1.81
			c-0.9,2.25-1.79,4.61-2.55,6.93c-0.49,1.48-0.93,2.94-1.29,4.33c-0.15,0.6-0.29,1.19-0.42,1.76l-1.61,72.51
			c7.16-4.15,15.44-6.53,24.25-6.53h20.73c26.9,0,48.91,22.13,48.91,49.19v25.04h16.92c-0.33-52.46-0.66-100.54-0.78-109.1
			c-0.28-20.13-22.11-49.04-22.11-49.04l-19.84-152.22c0,0,3.12-1.42,3.4-7.65c0.04-0.78,0-1.57-0.1-2.36c0-0.01,0-0.02,0-0.03
			c-0.05-0.38-0.11-0.77-0.18-1.15c0-0.02-0.01-0.03-0.01-0.05c-0.07-0.35-0.14-0.7-0.23-1.04c-0.04-0.15-0.07-0.29-0.11-0.44
			c-0.05-0.18-0.1-0.37-0.15-0.55c-0.06-0.21-0.12-0.41-0.19-0.62c-0.03-0.1-0.06-0.2-0.09-0.3c-0.08-0.25-0.16-0.5-0.25-0.74
			c-0.01-0.04-0.03-0.08-0.04-0.11c-0.18-0.51-0.37-1-0.56-1.47C430.31,151.24,428.95,151.87,427.49,151.72z"/>
		<path class="st4" d="M365.27,330.72c0.76-2.32,1.65-4.68,2.55-6.93C366.92,326.04,366.03,328.4,365.27,330.72z"/>
		<path class="st4" d="M389.29,152.03c-1.26-0.11-2.49-0.7-3.72-1.68c-0.54-0.43-1.07-0.7-1.6-0.85c-0.06,0.08-0.12,0.17-0.18,0.26
			c0.32,0.16,0.63,0.35,0.95,0.6C386.23,151.54,387.75,152.16,389.29,152.03z"/>
		<path class="st4" d="M421.4,149.37c0.84,0.09,1.67,0.48,2.47,1.11c1.26,1,2.47,1.35,3.62,1.24c-0.9-0.09-1.83-0.48-2.79-1.24
			C423.64,149.64,422.54,149.22,421.4,149.37z"/>
		<path class="st4" d="M408.49,149.39c0.67,0.09,1.33,0.4,1.98,0.95c1.46,1.23,2.91,1.73,4.36,1.6c-1.17-0.1-2.35-0.61-3.53-1.6
			C410.38,149.57,409.45,149.26,408.49,149.39z"/>
		<path class="st4" d="M396.01,149.61c-0.14-0.01-0.28,0.01-0.42,0.02c0.71,0.05,1.43,0.31,2.12,0.89c1.42,1.18,2.81,1.63,4.18,1.51
			c-1.1-0.1-2.21-0.57-3.34-1.51C397.71,149.82,396.86,149.57,396.01,149.61z"/>
		<path class="st4" d="M395.99,629.8l0.01-0.05l-0.01,0C396,629.77,396,629.78,395.99,629.8z"/>
		<path class="st4" d="M444.16,642.5c1.37-0.33,2.73-0.68,4.06-1.05c1.83-0.51,3.62-1.05,5.37-1.64c0.88-0.29,1.74-0.6,2.6-0.91
			c0.86-0.31,1.7-0.64,2.53-0.98c5.49-2.22,10.46-4.91,14.59-8.18c0,0,0,0,0,0l0,0c0.33-1.69,0.37-2.74,0.37-2.74s0-0.53-0.01-1.55
			l-0.6-99.38h-17.23v26.45c0,27.05-22.01,49.19-48.91,49.19h-20.73c-10.53,0-20.31-3.41-28.31-9.16l-0.65,29.5l-0.12,5.56
			c0,0-0.01,0.38,0.03,1.03c0.3,4.98,2.43,10.31,6.39,13.49c3.93,3.15,9.21,3.92,14.23,4.38c14.6,1.35,29.36,1.19,43.95-0.32
			c6.15-0.64,12.25-1.41,18.3-2.7"/>
		<path class="st1" d="M396.56,130.6c3.33,0,6.67-0.05,10-0.07c-3.61,0.02-7.22,0.07-10.83,0.07c0.09,0,0.19,0,0.28,0
			C396.19,130.6,396.38,130.6,396.56,130.6z"/>
		<path class="st1" d="M357.31,148.1c-0.11-0.29-0.14-0.66-0.03-1.16c2.23-10.31,5.63-15.8,18.05-16.29
			c3.09-0.12,6.19-0.14,9.29-0.12c-3.38-0.02-6.75-0.01-10.12,0.12c-12.42,0.49-15.81,5.98-18.05,16.29
			c-0.24,1.11,0.17,1.61,0.77,1.92c0-0.18,0.01-0.38,0.06-0.61C357.28,148.2,357.3,148.15,357.31,148.1z"/>
		<path class="st1" d="M576.49,344.75l-122.57-70.76l-13.59-104.23c1.58-2.62,2.71-6.04,2.9-10.32c0.07-1.5-0.02-3.07-0.26-4.7
			c1.69-2.74,1.92-5.93,1.34-8.57c-2.48-11.44-7.66-23.24-27.25-24.01c-4.86-0.19-9.69-0.14-14.35-0.1
			c-2.05,0.02-4.11,0.04-6.17,0.04h-1.1c-2.05,0-4.11-0.02-6.16-0.04c-4.68-0.05-9.5-0.09-14.35,0.1
			c-19.59,0.77-24.77,12.57-27.25,24.02c-0.57,2.63-0.34,5.8,1.35,8.54c-0.24,1.64-0.33,3.22-0.26,4.73
			c0.19,4.28,1.32,7.7,2.9,10.32l-13.59,104.22l-122.58,70.77c-3.47,2-5.6,5.7-5.6,9.7V556.4c0,4,2.14,7.7,5.6,9.7l93.04,53.72
			c-0.03,4.37-0.04,6.89-0.04,7.13l0,0.33c0.38,13.71,12.64,40.27,56.32,42.68l62.08,0.02l0.27-0.02
			c43.68-2.41,55.93-28.97,56.31-42.68l0-0.33c0-0.24-0.02-2.76-0.04-7.13l93.03-53.71c3.47-2,5.6-5.7,5.6-9.7V354.46
			C582.09,350.45,579.96,346.76,576.49,344.75z M342.12,318.88l3.01-23.08l3.65-27.98l13.19-101.16c0,0-3.12-1.42-3.4-7.65
			c-0.03-0.63,0-1.27,0.06-1.91c0-0.05,0.01-0.1,0.01-0.14c0.03-0.3,0.07-0.61,0.12-0.91c0.01-0.04,0.01-0.08,0.02-0.11
			c0.27-1.68,0.76-3.33,1.32-4.82c-0.91-0.78-2.86-0.6-2.88-2.24c-0.6-0.32-1.01-0.81-0.77-1.92c2.23-10.31,5.63-15.8,18.05-16.29
			c3.37-0.13,6.74-0.14,10.12-0.12c3.61,0.02,7.23,0.07,10.85,0.07c0.09,0,0.18,0,0.27,0c3.61,0,7.22-0.06,10.83-0.07
			c3.38-0.02,6.76-0.01,10.13,0.12c12.42,0.49,15.81,5.98,18.05,16.29c0.11,0.5,0.08,0.87-0.03,1.16c0.01,0.05,0.02,0.1,0.03,0.15
			c0.5,2.32-1.82,1.99-2.82,2.86c0.06,0.16,0.12,0.33,0.18,0.5c0.01,0.04,0.03,0.08,0.04,0.11c0.09,0.24,0.17,0.49,0.25,0.74
			c0.03,0.1,0.06,0.2,0.09,0.3c0.06,0.21,0.13,0.41,0.19,0.62c0.05,0.18,0.1,0.37,0.15,0.55c0.04,0.15,0.08,0.29,0.11,0.44
			c0.08,0.34,0.16,0.69,0.23,1.04c0,0.02,0.01,0.03,0.01,0.05c0.07,0.38,0.13,0.77,0.18,1.15c0,0.01,0,0.02,0,0.03
			c0.1,0.79,0.14,1.59,0.11,2.36c-0.28,6.24-3.4,7.65-3.4,7.65l13.19,101.16l3.65,27.98v0l3.01,23.08c0,0,21.83,28.91,22.11,49.04
			c0.12,8.55,0.45,56.63,0.78,109.1h-0.01h-16.92v-25.04c0-27.05-22.01-49.19-48.91-49.19h-20.73c-8.81,0-17.09,2.39-24.25,6.53
			c-14.7,8.51-24.65,24.46-24.65,42.65v25.04h-18.07h-0.01c0.33-52.46,0.66-100.54,0.78-109.1
			C320.29,347.79,342.12,318.88,342.12,318.88z M308.71,594.03l-76.39-44.1v-189l102.13-58.96l-1.71,13.15
			c-5.58,7.78-22.24,32.65-22.52,52.67C310,383.16,309.11,527.74,308.71,594.03z M472.77,632.06c0,0.02-0.01,0.03-0.01,0.05
			c-0.08,0.28-0.16,0.56-0.26,0.85c-0.01,0.04-0.03,0.08-0.04,0.12c-0.13,0.39-0.26,0.78-0.41,1.2c0,0.01-0.01,0.02-0.01,0.03
			c-0.01,0.03-0.02,0.06-0.03,0.09c-0.14,0.38-0.3,0.78-0.47,1.18c-0.05,0.12-0.1,0.24-0.15,0.36c-0.14,0.33-0.3,0.67-0.46,1.02
			c-0.07,0.15-0.14,0.29-0.21,0.44c-0.17,0.34-0.35,0.69-0.54,1.04c-0.07,0.14-0.14,0.28-0.22,0.42c-0.27,0.49-0.56,0.98-0.87,1.48
			c-0.02,0.03-0.04,0.06-0.06,0.09c-0.2,0.31-0.4,0.63-0.62,0.94c-0.04,0.06-0.09,0.12-0.13,0.19c-0.2,0.28-0.4,0.57-0.61,0.85
			c-0.06,0.09-0.13,0.17-0.19,0.26c-0.2,0.26-0.4,0.52-0.61,0.79c-0.08,0.1-0.16,0.2-0.25,0.31c-0.2,0.25-0.41,0.5-0.63,0.74
			c-0.1,0.11-0.2,0.23-0.3,0.34c-0.21,0.24-0.43,0.47-0.65,0.71c-0.11,0.12-0.23,0.24-0.34,0.36c-0.22,0.23-0.45,0.46-0.68,0.68
			c-0.13,0.12-0.25,0.25-0.38,0.37c-0.24,0.23-0.48,0.45-0.73,0.67c-0.14,0.12-0.27,0.25-0.41,0.37c-0.26,0.23-0.53,0.45-0.8,0.67
			c-0.14,0.12-0.28,0.23-0.42,0.35c-0.3,0.24-0.61,0.47-0.92,0.71c-0.13,0.1-0.25,0.2-0.38,0.29c-0.45,0.33-0.91,0.65-1.39,0.98
			c-0.01,0.01-0.02,0.01-0.03,0.02c-1.37,0.91-2.86,1.79-4.48,2.62c-0.05,0.02-0.09,0.05-0.14,0.07c-1.07,0.54-2.2,1.06-3.38,1.55
			c-0.06,0.02-0.12,0.05-0.17,0.07c-0.54,0.22-1.09,0.44-1.65,0.64c-0.07,0.03-0.14,0.05-0.21,0.08c-1.23,0.45-2.52,0.87-3.88,1.26
			c-0.11,0.03-0.23,0.07-0.35,0.1c-0.6,0.17-1.22,0.34-1.84,0.49c-0.08,0.02-0.16,0.04-0.24,0.06c-0.72,0.18-1.45,0.35-2.2,0.51
			c-0.07,0.01-0.14,0.03-0.21,0.04c-0.66,0.14-1.34,0.27-2.02,0.4c-0.16,0.03-0.33,0.06-0.49,0.09c-0.71,0.12-1.43,0.24-2.17,0.35
			c-0.06,0.01-0.11,0.02-0.17,0.03c-0.8,0.12-1.63,0.22-2.46,0.32c-0.17,0.02-0.34,0.04-0.5,0.05c-0.68,0.08-1.37,0.14-2.07,0.21
			c-0.21,0.02-0.41,0.04-0.62,0.05c-0.87,0.07-1.74,0.13-2.64,0.18h-13.08h-14.41h-3.14h-3.14h-14.43h-13.07c0,0,0,0,0,0h-0.01
			c-46.21-2.55-47.06-33.17-47.06-33.17s0-0.53,0.01-1.55c0.02-3.5,0.08-12.75,0.15-25.79c0.11-18.69,0.27-45.16,0.45-73.59h0.01
			h18.38v26.45c0,16.46,8.15,31.08,20.59,40.03c8.01,5.76,17.78,9.16,28.31,9.16h20.73c26.9,0,48.91-22.13,48.91-49.19v-26.45h17.23
			h0.01c0.18,28.43,0.34,54.9,0.45,73.59v0c0.08,13.04,0.13,22.29,0.15,25.79c0.01,1.01,0.01,1.55,0.01,1.55
			S473.63,629.02,472.77,632.06z M559.68,549.93l-76.38,44.1c-0.4-66.3-1.29-210.86-1.5-226.25v0
			c-0.28-20.02-16.94-44.89-22.52-52.67l-1.71-13.14l102.11,58.95V549.93z"/>
		<path class="st0" d="M392.63,150.51c-1.13,0.94-2.24,1.42-3.34,1.51c1.37,0.12,2.76-0.34,4.18-1.51c0.7-0.58,1.41-0.84,2.12-0.89
			c-0.14-0.01-0.28-0.02-0.42-0.02C394.32,149.57,393.47,149.82,392.63,150.51z"/>
		<path class="st0" d="M366.48,150.48c-0.96,0.76-1.9,1.15-2.81,1.24c1.16,0.12,2.38-0.24,3.64-1.24c0.8-0.63,1.62-1.02,2.47-1.11
			C368.64,149.22,367.54,149.64,366.48,150.48z"/>
		<path class="st0" d="M427.49,151.72c1.46,0.15,2.82-0.48,4.04-1.58c-0.07-0.18-0.14-0.35-0.22-0.52
			c-0.11,0.07-0.22,0.14-0.31,0.23C429.94,150.91,428.75,151.6,427.49,151.72z"/>
		<path class="st0" d="M418.37,150.39c-1.17,0.95-2.35,1.46-3.53,1.56c1.46,0.13,2.92-0.4,4.36-1.56c0.74-0.6,1.48-0.92,2.2-1.02
			C420.42,149.26,419.4,149.55,418.37,150.39z"/>
		<path class="st0" d="M379.87,150.35c-1.18,0.99-2.36,1.5-3.53,1.6c1.45,0.13,2.91-0.37,4.36-1.6c0.65-0.55,1.31-0.86,1.98-0.95
			C381.73,149.26,380.8,149.57,379.87,150.35z"/>
		<path class="st0" d="M405.62,150.35c-1.23,0.98-2.47,1.57-3.72,1.68c1.54,0.14,3.06-0.48,4.56-1.68c0.69-0.55,1.37-0.86,2.05-0.95
			C407.55,149.26,406.58,149.57,405.62,150.35z"/>
		<path class="st0" d="M433.91,146.94c0.47,2.15-1.5,2.02-2.59,2.68c0.07,0.17,0.14,0.34,0.22,0.52c0.1-0.09,0.2-0.19,0.3-0.28
			c0.76-0.75,2.45-0.66,2.87-1.75c-0.91-4.16-2.03-7.51-3.85-10.07C432.22,140.43,433.14,143.39,433.91,146.94z"/>
		<path class="st0" d="M395.17,130.6c0.09,0,0.19,0,0.28,0c-3.61,0-7.23-0.06-10.85-0.07c3.34,0.02,6.68,0.07,10.01,0.07
			C394.81,130.6,394.99,130.6,395.17,130.6z"/>
		<path class="st0" d="M434.74,146.94c-2.23-10.31-5.63-15.8-18.05-16.29c-3.37-0.13-6.75-0.14-10.13-0.12
			c-3.33,0.02-6.67,0.07-10,0.07c-0.18,0-0.37,0-0.55,0c-0.09,0-0.19,0-0.28,0c-0.09,0-0.18,0-0.27,0c-0.09,0-0.19,0-0.28,0
			c-0.18,0-0.37,0-0.55,0c-3.34,0-6.68-0.05-10.01-0.07c-3.1-0.01-6.19,0-9.29,0.12c-12.42,0.49-15.81,5.98-18.05,16.29
			c-0.11,0.5-0.08,0.87,0.03,1.16c0.43,1.09,2.11,1,2.87,1.75c0.1,0.1,0.2,0.19,0.29,0.28c0.98,0.89,2.06,1.48,3.2,1.59
			c0.9-0.09,1.84-0.48,2.81-1.24c1.06-0.84,2.16-1.26,3.3-1.11c0.99-0.11,2,0.18,3.03,1.02c1.17,0.95,2.35,1.46,3.53,1.56
			c1.17-0.1,2.35-0.61,3.53-1.6c0.92-0.78,1.86-1.08,2.81-0.95c0.42-0.06,0.85-0.03,1.28,0.1c0.53,0.15,1.06,0.43,1.6,0.85
			c1.23,0.98,2.47,1.57,3.72,1.68c1.1-0.1,2.21-0.57,3.34-1.51c0.83-0.69,1.69-0.95,2.54-0.91c0.14-0.01,0.28,0.01,0.42,0.02
			c0.14-0.01,0.28-0.02,0.42-0.02c0.85-0.04,1.71,0.21,2.54,0.91c1.13,0.94,2.24,1.42,3.34,1.51c1.26-0.11,2.49-0.7,3.72-1.68
			c0.97-0.77,1.93-1.08,2.88-0.95c0.95-0.13,1.89,0.17,2.81,0.95c1.18,0.99,2.36,1.5,3.53,1.6c1.18-0.1,2.36-0.62,3.53-1.56
			c1.03-0.83,2.05-1.13,3.03-1.02c1.14-0.15,2.24,0.27,3.3,1.11c0.96,0.76,1.89,1.15,2.79,1.24c1.27-0.12,2.45-0.81,3.51-1.87
			c0.09-0.09,0.2-0.17,0.31-0.23c1.09-0.66,3.06-0.53,2.59-2.68c-0.77-3.55-1.69-6.51-3.05-8.91c1.82,2.56,2.94,5.92,3.85,10.07
			C434.82,147.81,434.85,147.44,434.74,146.94z"/>
	</g>
</g>
</svg>
